<?xml version="1.0" encoding="UTF-8" standalone="no"?>
<!-- Created with Inkscape (http://www.inkscape.org/) -->

<svg
   width="68.782898mm"
   height="95.602859mm"
   viewBox="0 0 68.782898 95.602859"
   version="1.1"
   id="svg1292"
   inkscape:version="1.2 (dc2aedaf03, 2022-05-15)"
   sodipodi:docname="chewie.svg"
   xmlns:inkscape="http://www.inkscape.org/namespaces/inkscape"
   xmlns:sodipodi="http://sodipodi.sourceforge.net/DTD/sodipodi-0.dtd"
   xmlns="http://www.w3.org/2000/svg"
   xmlns:svg="http://www.w3.org/2000/svg">
  <sodipodi:namedview
     id="namedview1294"
     pagecolor="#505050"
     bordercolor="#ffffff"
     borderopacity="1"
     inkscape:showpageshadow="0"
     inkscape:pageopacity="0"
     inkscape:pagecheckerboard="1"
     inkscape:deskcolor="#505050"
     inkscape:document-units="mm"
     showgrid="false"
     inkscape:zoom="0.2102413"
     inkscape:cx="1386.5021"
     inkscape:cy="166.47538"
     inkscape:window-width="1800"
     inkscape:window-height="1144"
     inkscape:window-x="0"
     inkscape:window-y="28"
     inkscape:window-maximized="1"
     inkscape:current-layer="layer1" />
  <defs
     id="defs1289" />
  <g
     inkscape:label="Layer 1"
     inkscape:groupmode="layer"
     id="layer1"
     transform="translate(394.31518,-104.47399)">
    <path
       d="m -359.04616,104.47399 1.05833,3.88056 h -0.35278 l -0.70555,-3.88056 m 2.35197,0.2353 -0.11783,0.23495 0.11783,-0.23495 m 5.40914,-0.2353 v 0.35278 c -1.92405,1.00718 -2.93229,2.52377 -3.52778,4.58611 h 0.35278 c 1.48307,-3.37115 4.4965,-5.092 8.11389,-4.23333 v 0.35277 h -2.11667 l 7.76111,6.35 -1.05833,-0.35277 1.76389,1.41111 -0.70556,0.70555 c 2.0761,1.08021 3.18064,2.63208 3.52778,4.93889 h -0.35278 l -1.05833,-1.41111 c 0.37324,1.1557 2.72732,6.47065 1.41111,6.70278 l 3.88055,5.64444 -1.76389,-1.05833 2.46945,7.76111 h -0.35278 l -1.41111,-2.46944 h -0.35278 l 2.11667,8.46666 h -0.35278 l -1.41111,-2.82222 h -0.35278 l 1.76389,8.11389 h -0.35278 l -4.93889,-14.11111 h -0.35277 l 2.11666,19.75555 h 0.35278 l 0.35278,-2.11666 h 0.35278 l 0.35277,4.93889 h 0.70556 l 0.70556,-7.76112 h 0.35277 l 1.41111,2.82223 h -0.35277 l -0.70556,-0.70556 0.35278,4.23333 -0.70556,-0.35277 0.70556,6.70277 h -0.35278 l -0.70555,-1.76388 h -0.35278 c 0.10266,4.37126 4.05447,6.35599 5.29166,10.23055 h -0.35277 l -2.11667,-2.46944 0.70556,4.93889 h -0.35278 l -1.41111,-3.88056 h -0.35278 v 1.76389 h -0.35278 l -1.76389,-4.58611 h -0.35278 c 1.08233,3.85163 2.21721,9.77547 0,13.40555 l -2.11666,-5.64444 h 0.35278 l 1.41111,2.46944 -0.35278,-4.23333 h 0.35278 v 0.70556 h 0.35277 l -1.71838,-8.85085 -0.1464,-7.72971 -3.05929,-9.525 -2.13148,-8.11389 h -0.35278 l 0.70556,3.88056 h -0.35278 l -0.70556,-2.11667 h -0.35277 c 0.31785,4.20017 -0.36478,8.0458 3.52777,10.93611 l -0.70555,-1.76389 h 0.35278 l 1.76388,4.58611 h -0.35277 l -0.70556,-0.70555 0.70556,3.175 h -0.35278 l -1.41111,-1.76389 1.73108,9.15846 -0.67275,13.77209 h 0.35278 v -3.175 h 0.35278 l 0.70555,9.17223 h -0.35278 c -2.61867,-6.78815 -1.98296,-12.01597 -1.80939,-19.05 0.0695,-2.81023 -0.63677,-5.64868 -0.66005,-8.46667 l -1.05833,0.70556 c -0.37642,-2.51178 -1.65312,-5.32377 -3.52778,-7.05556 l 1.05833,3.88056 h -0.35278 c -3.10409,-5.461 -0.24412,-11.42013 -4.93888,-16.22778 l 1.05833,2.82222 h -0.35278 l -1.76389,-2.82222 h -0.35278 l 2.11667,12.7 h -0.35278 l -1.05833,-3.175 h -0.35278 c 0.002,3.94299 1.97485,6.64386 3.2826,10.23055 1.4926,4.09469 1.99602,7.68774 1.65629,11.99445 h -0.35278 l -1.05833,-9.17222 h -0.35278 l -0.35278,3.175 h -0.35277 l -2.82223,-9.525 h -0.35277 l 2.82222,15.52222 h -0.35278 l -2.82222,-9.17222 h -0.35278 c -1.02447,8.11283 6.09388,14.45648 4.58611,22.57777 h -0.35278 l -3.93911,-10.58333 -2.41089,-5.99722 1.41112,7.76111 h -0.35278 l -1.05834,-6.35 h -0.35277 c -0.3997,5.06377 1.04704,8.66175 2.58551,13.40555 0.54892,1.69298 1.14688,4.06189 -0.46885,5.29167 -0.17392,-3.98745 -1.51659,-10.73926 -4.23333,-13.75833 l -0.35278,4.58611 h -0.35278 l 0.70556,-7.40833 -1.41111,2.11666 h -0.35278 c 1.33809,-4.89197 3.57505,-8.56932 2.11667,-13.75833 h -0.35278 l -4.47992,17.28611 1.6577,10.93611 h -0.35278 l -2.11667,-9.525 h -0.35277 v 1.05833 h -0.35278 l 1.05833,-9.87777 h -0.35278 l -1.05833,5.29166 h -0.35278 l 0.35278,-3.175 h -0.35278 l -3.52778,11.64167 h -0.35278 c 1.93076,-6.07801 1.67958,-11.7415 1.41111,-17.99167 h -0.35277 l -0.35278,6.35 h -0.35278 l -0.70555,-18.34444 h -0.35278 l -1.05834,5.64444 h -0.35277 l 0.70555,-9.525 h 0.35278 v 2.11667 h 0.70556 l 1.41111,-3.175 0.35277,3.52778 h 0.35278 l 1.41112,-3.52778 v 11.64167 h 0.35277 l 1.05834,-9.525 h 0.35278 l 0.35277,2.11666 h 0.35278 l 0.35278,-2.46944 h 0.35278 v 2.82222 l 1.05833,-2.46944 h 0.35278 l 0.70555,4.93889 h 0.35278 l -0.35278,-4.93889 h 0.35278 l 0.70556,0.70555 c 10e-4,-1.90782 -0.0314,-3.22615 1.76389,-4.23333 v -0.35278 c -1.62137,0.25047 -2.48038,0.99801 -3.175,2.46945 h -0.35278 l 1.76389,-2.82223 v -0.35277 l -1.05834,-0.35278 v -0.35278 l 1.05834,-0.70556 -9.52501,1.76389 v -0.35277 c 2.79365,-1.46615 9.45128,-0.83432 10.93612,-3.52778 0.79798,0.52458 1.28799,1.4037 2.16323,1.83162 4.22381,2.06516 1.12219,-3.75179 0.30621,-5.00662 l 1.41111,1.05833 c -1.29222,-2.4892 -3.36373,-3.8167 -5.99722,-4.58611 l 1.05833,1.05833 v 0.35278 c -1.38676,-0.69991 -2.39006,-2.81234 0.007,-2.76331 1.50954,0.0307 2.88149,1.12536 4.22663,1.70498 v -0.35278 l -2.46944,-1.41111 v -0.35278 l 1.41111,0.35278 v -0.35278 l -1.76389,-1.41111 h 1.05834 v -0.35278 l -0.70556,-1.41111 7.40833,5.29167 -1.76389,-1.41111 v -0.35278 c 2.63843,0.84243 4.05589,2.74461 4.93889,5.29167 h 0.35278 l -1.05833,-3.175 3.52778,2.46944 -3.88056,-4.23333 v -0.35278 l 4.23333,2.82222 -6.35,-4.93889 v -0.35278 l 1.76389,0.35278 -3.175,-2.11666 v -0.35278 l 3.175,0.35278 -4.93889,-2.11667 0.70556,-1.05833 -2.11667,-0.35278 0.70556,-1.76389 -2.82222,1.41111 1.76388,-3.88056 -3.88055,3.52778 3.175,-8.46666 -1.05833,1.41111 -1.05834,0.70555 h -0.35278 l 0.70556,-3.52778 c -2.40771,2.92982 -2.67758,5.99511 -3.52778,9.525 h -0.35278 l -0.35277,-5.29166 h -0.70556 v 6.70278 h -0.35278 l -0.70555,-0.70556 c 0.25223,-3.90737 -1.93005,-8.25606 -4.58611,-10.93611 0.91546,1.74695 4.58152,7.21818 2.82222,8.81944 l 0.35278,1.41111 h -0.35278 l -1.05833,-2.82222 1.05833,0.35278 -2.82222,-5.29167 h -0.35278 l 2.11667,4.58611 -3.175,-1.76388 3.175,4.93888 -4.93889,-2.46944 0.35277,-0.70556 c -3.54397,-0.96696 -5.20347,-0.71014 -8.11388,1.76389 3.62034,-0.74683 8.31073,-1.55046 10.93611,1.76389 -2.24191,-0.28328 -4.79566,-0.79516 -6.70278,0.70556 l 4.23333,0.35278 v 0.35277 c -2.74143,0.0226 -5.24474,0.63677 -7.05555,2.82223 l 3.52777,-1.41112 v 0.35278 l -2.46944,1.05834 -2.11667,2.46944 0.70556,-1.41111 -3.175,2.82222 2.82222,-4.93889 -2.46944,0.35278 -3.52778,4.58611 3.175,-2.46944 -2.11667,4.93889 h 0.35278 l 1.76389,-2.11667 -0.70556,1.05833 1.41111,-0.70555 -1.05833,1.76389 c 2.29553,-2.29553 4.65085,-5.41232 8.11389,-5.64445 v 0.35278 l -4.58611,4.93889 4.23333,-2.46945 -1.41111,2.11667 8.46667,-4.93889 -3.175,5.64445 c 1.57727,-1.45839 2.82857,-2.03342 4.93889,-1.41112 -2.28212,2.47051 -4.68383,4.78543 -5.64445,8.11389 h -0.35278 l -0.35277,-0.70555 -0.70556,2.82222 h -0.35278 l 1.76389,-5.99722 -2.11666,1.76389 1.41111,-5.99723 -2.11667,1.76389 0.70556,-1.76389 -3.52778,2.46945 0.35278,-1.05833 c -2.88153,2.39641 -4.63113,5.4042 -4.93889,9.17222 h 0.35277 l 1.05834,-3.88056 h 0.35278 l -0.35278,1.76389 h 0.35278 l 2.46944,-3.88055 -0.70556,2.82222 h 0.35278 l 0.70556,-1.76389 h 0.35278 l -1.05834,3.175 1.05834,-0.70556 -1.41112,4.23334 h 0.35278 l 1.05834,-2.11667 h 0.35277 c -1.61085,7.04356 -0.0239,14.33512 0.35278,21.51944 l 0.70556,-1.41111 h 0.35277 l -2.11666,16.93334 h -0.35278 l -0.70556,-10.23056 h -0.35277 l -1.76389,11.64167 h -0.35278 l 0.29263,-16.58056 -1.70374,-11.99444 h -0.35278 l -0.35278,1.41111 h -0.35277 l 1.05833,-11.28889 h -0.70556 l -1.72713,12.7 2.43269,13.40556 h -0.35278 v -1.76389 c -2.10876,2.41405 -1.76389,6.84988 -1.76389,9.87777 h -0.35278 c -1.4956,-4.71805 3.35827,-11.45081 -0.35277,-15.16944 0.65571,2.75414 0.25558,5.26768 -1.05834,7.76111 h -0.35277 c 0.5806,-2.43981 0.54137,-6.78639 -1.05834,-8.81944 v 6.70277 h -0.35277 l -1.41112,-8.81944 h -0.35277 l -0.70556,10.93611 h -0.35278 l 0.35278,-8.81944 h -0.35278 l -1.05833,4.93889 h -0.35278 l -0.70555,-2.46945 -0.70556,0.70556 h -0.35278 l 5.64445,-31.04445 h 0.35278 v 1.76389 h 0.35277 c 2.04735,-7.89305 5.4761,-17.61807 15.16945,-16.93333 v -0.35278 c -5.41112,-2.20451 -7.21501,1.71626 -11.28889,4.58611 l 4.58611,-6.35 -2.11667,1.05833 c 1.78897,-3.08645 4.71551,-4.58822 8.11389,-5.29166 v -0.35278 l -5.29167,1.05833 c 1.80411,-2.0514 4.5332,-1.76389 7.05556,-1.76389 v -0.35277 l -4.23333,-1.05834 v -0.35277 l 3.52777,0.35277 v -0.35277 l -2.82222,-1.05834 v -0.35278 l 4.23334,1.41112 -0.35278,-0.70556 c 1.74731,1.25765 2.91888,2.86949 3.52778,4.93889 h 0.35277 l -2.46944,-5.99722 c 2.79047,2.37631 3.20922,6.32601 4.58611,9.525 l -0.70555,-5.29167 -0.70556,-4.23333 h 0.35278 l 1.76389,5.29166 h 0.35277 l -1.41111,-7.05555 h 2.46945 l 0.35277,11.28889 h 0.35278 l 1.05834,-7.40834 h 0.35277 v 1.76389 h 0.35278 v -2.82222 h 0.35278 l 0.70555,1.05833 c 0.19403,-2.89172 2.20204,-4.10633 4.93889,-4.23333 m -11.99444,1.41111 -0.35278,0.35278 0.35278,-0.35278 m 6.35,0 -0.35278,0.35278 0.35278,-0.35278 m 3.88056,10.23056 1.05833,-0.35278 -1.05833,2.11667 3.175,-2.46945 -1.05833,1.76389 1.76389,-1.05833 v 0.70555 l 7.05555,-1.05833 v -0.35278 l -4.93889,-1.41111 v -0.35278 l 3.175,-0.35278 v -0.35277 l -4.23333,0.35277 v -0.70555 c -2.19146,0.5267 -3.64631,1.69792 -4.93889,3.52778 m -2.46944,-3.175 0.35277,0.35277 -0.35277,-0.35277 m 8.46666,1.05833 v 0.35278 l -2.82222,1.05833 2.82222,-1.41111 m -6.70278,0.35278 0.35278,0.35278 -0.35278,-0.35278 m 2.11667,1.05833 -0.35278,0.35278 0.35278,-0.35278 m 2.82222,0.35278 -0.35277,0.35278 0.35277,-0.35278 m -0.35277,3.52778 3.175,-0.70556 v 0.35278 l -3.52778,1.76389 c 3.04376,-0.80575 5.66032,-1.64501 8.81944,-1.05834 v -0.35277 l -4.58611,-1.76389 v -0.35278 h 1.41111 c -2.08703,-1.41781 -4.52473,-0.0854 -5.29166,2.11667 m 7.76111,-1.41111 v 0.35277 l 3.52777,3.52778 c -0.57326,-1.92969 -1.59702,-3.22227 -3.52777,-3.88055 m -8.11389,4.93888 h 1.05833 v 0.35278 l -0.70555,0.35278 v 0.35278 l 8.46666,-1.05834 v -0.35277 l -4.93889,-0.70556 v -0.35278 l 3.52778,-0.35277 c -2.5975,-1.85068 -5.53261,-0.44592 -7.40833,1.76388 m -27.86944,1.41112 7.76111,-2.46945 c -2.62431,-1.10137 -6.37533,-0.0571 -7.76111,2.46945 m 29.28055,-1.76389 -0.35278,0.35277 0.35278,-0.35277 m -14.46389,0.70555 1.05833,2.11667 -1.76389,0.70555 0.70556,-2.82222 m 14.46389,1.76389 5.29167,1.05833 c -1.24672,-2.0902 -3.25932,-1.81927 -5.29167,-1.05833 m -34.57222,5.29167 h 0.35278 l 5.64444,-4.93889 c -3.03702,-1.2386 -5.2633,2.46239 -5.99722,4.93889 m 24.69444,-4.23334 0.35278,1.05834 h -0.35278 v -1.05834 m -8.81944,0.35278 v 0.35278 l -1.41111,0.35278 1.41111,-0.70556 m 14.11111,0 v 0.35278 h -1.41111 l 1.41111,-0.35278 m -9.525,0.35278 -0.35278,0.35278 0.35278,-0.35278 m 25.04722,0.35278 2.11667,2.46944 -2.11667,-2.46944 m -28.575,0.35278 -0.35277,0.35277 0.35277,-0.35277 m 7.76111,0.35277 -0.35278,0.35278 0.35278,-0.35278 m 5.29167,0 -0.70556,0.70556 0.70556,-0.70556 m -8.46667,0.35278 v 0.35278 h -1.05833 l 1.05833,-0.35278 m 9.525,0 0.35278,0.70556 h -0.70556 l 0.35278,-0.70556 m -16.22777,0.35278 -0.35278,0.35278 0.35278,-0.35278 m 3.88055,0 -0.35278,0.35278 0.35278,-0.35278 m 17.99167,0.35278 3.175,2.46944 -3.52778,-1.41111 4.23333,3.175 0.70556,-0.35278 c -0.3302,-2.4705 -2.05246,-4.09786 -4.58611,-3.88055 m 3.175,-0.35278 v 0.35278 l 3.52777,2.82222 c -0.60748,-1.78153 -1.67287,-2.80035 -3.52777,-3.175 m -16.22778,0.70555 v 1.05834 h -0.35278 l 0.35278,-1.05834 m -21.51944,8.81945 5.99722,-7.40833 c -3.16777,1.07703 -4.78472,4.49685 -5.99722,7.40833 m 20.4611,-6.70278 v 2.46945 l -1.76388,-0.35278 v -0.70556 l 1.05833,-0.35278 -0.70556,-0.70555 1.41111,-0.35278 m 17.63889,0 0.35278,1.05833 -0.35278,-1.05833 m -40.21696,2.11667 -3.175,10.23055 c 1.78516,-1.34091 3.93707,-8.10013 3.175,-10.23055 m 6.35,0 0.35278,0.35278 -0.35278,-0.35278 m 25.75277,0.70555 v 0.35278 l 4.58612,5.29167 c 0.69814,-2.54565 -2.32728,-5.18866 -4.58612,-5.64445 m -12.34722,0.35278 c 0,1.61643 9.30628,-1.68592 7.40834,2.82222 h -0.35278 l 0.35278,-1.41111 -1.76389,1.05834 -0.70556,-1.76389 v 1.76389 h -1.41111 l 0.70556,-1.76389 h -2.11667 l 0.70555,1.76389 -1.41111,0.35277 0.35278,-1.76389 -1.41111,0.35278 0.35278,1.41111 -0.35278,0.35278 -2.46944,2.11667 h -0.35278 c 0.0868,-1.80023 -0.19438,-3.20358 2.11666,-2.82222 l -1.41111,-1.76389 1.76389,-0.70556 m -17.99166,0.35278 c -2.21005,4.20123 -3.46685,9.36695 -3.88055,14.11111 h 0.35277 l 4.23334,-14.11111 h -0.70556 m 26.81111,1.76389 -0.35278,2.46944 h -0.35278 l 0.70556,-2.46944 m 13.75833,0.35278 2.82222,13.75833 h 0.35278 c -0.0335,-4.04777 0.95215,-11.32311 -3.175,-13.75833 m -11.99444,0.70555 0.35277,0.35278 -0.35277,-0.35278 m -1.05834,0.70556 -0.35278,0.35277 0.35278,-0.35277 m -10.58333,1.76389 0.35278,1.41111 h -1.05834 l 0.70556,-1.41111 m 23.28333,0 1.41111,6.70277 h 0.35278 c -3.5e-4,-2.16676 0.33867,-5.4744 -1.76389,-6.70277 m -4.58611,2.46944 c -0.58314,2.30964 0.30057,4.88844 2.46945,5.99722 l -2.46945,-5.99722 m 2.82222,0 -0.35277,0.35278 0.35277,-0.35278 m -27.98691,0.94086 -0.11783,0.23495 0.11783,-0.23495 m -10.81864,0.11747 -2.11666,5.99723 h 0.70555 c -1.44621,3.26248 -2.5624,9.26782 1.05833,11.64166 l 1.05834,-17.63889 h -0.70556 m 10.93611,0.70556 0.35278,14.11111 h -0.35278 c -0.19085,-4.44676 -1.84467,-9.83439 0,-14.11111 m 38.1,0.70555 v 1.05834 h -0.35278 l 0.35278,-1.05834 m -43.74444,3.52778 v 13.75834 h 0.70555 v -13.75834 h -0.70555 m -11.64167,3.88056 -1.76389,8.81944 h 0.35278 c 0.94319,-2.31493 2.36217,-6.38281 1.41111,-8.81944 m 43.39166,2.11666 0.70556,2.82223 h -0.35278 l -0.35278,-2.82223 m 8.46667,2.46945 0.35278,4.58611 h 0.35278 l -0.70556,-4.58611 m -33.86666,1.76389 v 1.05833 h -0.35278 l 0.35278,-1.05833 m 25.75277,1.41111 1.41111,3.88055 -0.70555,6.35 1.05833,-3.175 h 0.35278 l -0.35278,11.28889 h -0.35278 l -1.1497,-14.46389 -0.26141,-3.88055 m -41.98055,7.40833 0.35278,5.29167 h -0.70556 l 0.35278,-5.29167 m 37.62974,1.29364 -0.11782,0.23495 0.11782,-0.23495 m 12.11192,-0.2353 -0.35277,0.35277 0.35277,-0.35277 m -34.21944,1.05833 -1.41111,6.70278 h -0.35278 c -0.60596,-2.54635 -0.20884,-4.87504 1.76389,-6.70278 m 34.45475,0.2353 -0.11783,0.23495 0.11783,-0.23495 m 6.46747,1.52859 0.70556,4.58611 h -0.35278 l -0.35278,-4.58611 m -23.04803,1.99919 -0.11783,0.23495 0.11783,-0.23495 m 0.35278,1.05833 -0.11783,0.23495 0.11783,-0.23495 m -18.93252,3.64526 -1.05834,4.93888 h -0.35277 c 3.5e-4,-1.94768 -0.14189,-3.56834 1.41111,-4.93888 m 6.70277,1.76388 -2.46944,7.40834 h -0.35278 l 2.82222,-7.40834 m 1.05833,4.93898 v 2.11667 h -0.35278 l 0.35278,-2.11667 m -25.4,7.05555 v 2.46944 c -3.87833,-2.0133 -4.16479,4.82248 0.35278,2.82223 -1.5318,7.52333 -9.83559,-2.48638 -3.84355,-5.02991 1.04179,-0.44203 2.38456,-0.26176 3.49077,-0.26176 m 3.88056,0 -0.35278,2.82222 h 2.46944 l -0.35278,-2.82222 h 2.82223 l -0.35278,7.76111 h -2.46945 l 0.35278,-3.175 c -2.14027,0.16334 -2.45964,1.20368 -2.11666,3.175 h -2.46945 v -7.76111 h 2.46945 m 11.64166,0 v 2.46944 l -3.175,-1.05833 v 1.76389 l 1.76389,-0.70556 v 2.46945 h -2.11667 c 1.13189,1.79846 2.25295,1.60196 3.52778,0 h 0.35278 v 3.175 l -5.99722,-0.35278 v -7.76111 h 5.64444 m 3.88056,0 v 4.58611 h 0.70555 l 0.70556,-4.58611 h 2.11666 l 0.70556,4.93889 h 0.70556 l 0.35278,-4.93889 h 2.11666 l -1.76389,7.76111 h -2.46944 l -0.70556,-4.23333 h -0.35278 l -0.70555,4.23333 h -2.46945 l -1.76389,-7.76111 h 2.82223 m 13.75833,3.88055 c 5.10858,3.32035 -3.42476,3.89608 -5.29166,3.88056 v -7.76111 c 2.76789,0 8.32273,-0.33726 5.29166,3.88055 m 9.17223,3.88056 h -2.46945 l -0.35278,-1.76389 c -1.43086,0.23636 -2.34914,0.27058 -2.82222,1.76389 h -1.76389 l 2.11667,-7.76111 c 4.42066,0.004 4.25379,4.10422 5.29167,7.76111 m 5.99722,-7.76111 v 2.46944 c -4.14796,-1.95192 -4.14761,4.97558 0.35278,2.82223 -2.00872,7.62599 -9.82522,-2.73439 -3.86504,-5.07895 1.04599,-0.41134 2.40842,-0.21272 3.51226,-0.21272 m 6.70278,0 v 2.46944 c -4.47887,-1.60655 -4.02908,4.76144 0.35277,2.82223 -2.80317,7.11905 -9.21843,-2.11667 -4.19523,-4.92902 1.08444,-0.60713 2.64513,-0.36265 3.84246,-0.36265 m 8.11388,7.76111 h -2.46944 c -0.47131,-1.54799 -1.34691,-1.55293 -2.82222,-1.76389 v 1.76389 h -2.11667 l 2.11667,-7.76111 c 4.5473,0.004 4.12291,4.10563 5.29166,7.76111 m -32.80833,-4.58611 c 2.68147,-0.44873 0.2353,-2.94499 0,0 m 7.76111,-1.41111 -0.70555,2.82222 2.11666,0.35278 -1.41111,-3.175 m 20.81389,0 -0.70555,2.82222 2.11666,0.35278 -0.70555,-3.175 h -0.70556 m -28.575,2.82222 v 2.11667 c 2.13043,-0.33973 2.2419,-1.94205 0,-2.11667"
       style="fill:#1b1212;stroke:none;stroke-width:1"
       id="path577" />
  </g>
</svg>
