<?xml version="1.0" encoding="UTF-8" standalone="no"?>
<svg
   sodipodi:docname="obiwan.svg"
   inkscape:version="1.2 (dc2aedaf03, 2022-05-15)"
   id="svg8"
   version="1.1"
   viewBox="0 0 135.46666 135.46667"
   height="135.46667mm"
   width="135.46666mm"
   xml:space="preserve"
   xmlns:inkscape="http://www.inkscape.org/namespaces/inkscape"
   xmlns:sodipodi="http://sodipodi.sourceforge.net/DTD/sodipodi-0.dtd"
   xmlns="http://www.w3.org/2000/svg"
   xmlns:svg="http://www.w3.org/2000/svg"
   xmlns:rdf="http://www.w3.org/1999/02/22-rdf-syntax-ns#"
   xmlns:cc="http://creativecommons.org/ns#"
   xmlns:dc="http://purl.org/dc/elements/1.1/"><defs
     id="defs2"><clipPath
       clipPathUnits="userSpaceOnUse"
       id="clipPath465"><rect
         style="fill:#ffffff;stroke:#ffffff;stroke-width:0.264583;stroke-linejoin:round"
         id="rect467"
         width="75.836845"
         height="87.11599"
         x="-133.19415"
         y="102.93922"
         ry="0.28460974" /></clipPath></defs><sodipodi:namedview
     inkscape:window-maximized="1"
     inkscape:window-y="28"
     inkscape:window-x="0"
     inkscape:window-height="1144"
     inkscape:window-width="1800"
     showgrid="false"
     inkscape:document-rotation="0"
     inkscape:current-layer="layer1"
     inkscape:document-units="mm"
     inkscape:cy="750.1417"
     inkscape:cx="-17.048675"
     inkscape:zoom="0.41058909"
     inkscape:pageshadow="2"
     inkscape:pageopacity="0.0"
     borderopacity="1.0"
     bordercolor="#666666"
     pagecolor="#ffffff"
     id="base"
     inkscape:pagecheckerboard="0"
     inkscape:showpageshadow="0"
     inkscape:deskcolor="#d1d1d1" /><metadata
     id="metadata5"><rdf:RDF><cc:Work
         rdf:about=""><dc:format>image/svg+xml</dc:format><dc:type
           rdf:resource="http://purl.org/dc/dcmitype/StillImage" /></cc:Work></rdf:RDF></metadata><g
     id="layer1"
     inkscape:groupmode="layer"
     inkscape:label="Layer 1"
     transform="translate(-4.2690416,-1.3579632)"><g
       transform="matrix(1.2505106,0,0,1.2427185,-55.83258,-178.73788)"
       id="g1459"
       style="stroke-width:0.802177"><path
         id="rect901"
         style="fill:#030404;fill-opacity:1;stroke-width:0.558224"
         d="m 578.11719,743.86133 -27.95117,-6.97071 -22.94922,-9.46679 -16.19922,-4.50977 c -2.18914,-0.28221 -4.32344,-0.39047 -6.41797,-0.37304 -2.09454,0.0174 -4.1489,0.16036 -6.17773,0.38086 l -7.15235,0.98242 18.08789,-23.60547 8.54297,-8.42774 -11.51172,-13.93945 -9.73242,-10.02148 -13.20703,-10.54297 -43.61328,-48.29688 -76.56641,-24.64648 -87.49023,40.59961 -83.12891,81.23047 -5.67773,12.7207 1.95898,8.0332 7.16406,17.38086 16.6211,25.89258 c 2.11594,2.89881 4.39085,5.72552 6.70508,8.5332 2.31422,2.80768 4.66684,5.59597 6.9414,8.42188 2.27457,2.82591 4.46983,5.68908 6.4668,8.64258 1.99697,2.95349 3.7959,5.99706 5.27734,9.1875 0.22365,0.88678 0.35726,1.75717 0.38672,2.60937 0.0295,0.85221 -0.0446,1.68683 -0.23437,2.5 l -3.01758,9.74805 -0.98633,9.11523 c -0.5947,1.43612 -1.24709,2.84934 -2.29492,4.10156 -0.52392,0.62612 -1.14656,1.2114 -1.91016,1.74024 -0.7636,0.52884 -1.6683,1.00107 -2.75586,1.39844 l -29.18945,2.04101 c -3.06828,0.2225 -5.87536,0.57026 -8.56836,0.97266 -2.693,0.40239 -5.27175,0.85902 -7.88672,1.29883 v 119.14062 h 396.4668 z"
         transform="scale(0.26458333)" /><path
         id="path1429"
         style="fill:#d4bfab;fill-opacity:1;stroke-width:0.558224"
         d="m 181.65039,567.1875 v 273.4043 c 2.61497,-0.43981 5.19372,-0.89644 7.88672,-1.29883 2.693,-0.4024 5.50008,-0.75016 8.56836,-0.97266 l 29.18945,-2.04101 c 1.08756,-0.39737 1.99226,-0.8696 2.75586,-1.39844 0.7636,-0.52884 1.38624,-1.11412 1.91016,-1.74024 1.04783,-1.25222 1.70022,-2.66544 2.29492,-4.10156 l 0.98633,-9.11523 3.01758,-9.74805 c 0.18981,-0.81317 0.26383,-1.64779 0.23437,-2.5 -0.0295,-0.8522 -0.16307,-1.72259 -0.38672,-2.60937 -1.48144,-3.19044 -3.28037,-6.23401 -5.27734,-9.1875 -1.99697,-2.9535 -4.19223,-5.81667 -6.4668,-8.64258 -2.27456,-2.82591 -4.62718,-5.6142 -6.9414,-8.42188 -2.31423,-2.80768 -4.58914,-5.63439 -6.70508,-8.5332 l -16.6211,-25.89258 -7.16406,-17.38086 -1.95898,-8.0332 5.67773,-12.7207 83.12891,-81.23047 87.49023,-40.59961 76.56641,24.64648 43.61328,48.29688 13.20703,10.54297 9.73242,10.02148 11.51172,13.93945 -8.54297,8.42774 -18.08789,23.60547 7.15235,-0.98242 c 2.02883,-0.2205 4.08319,-0.36344 6.17773,-0.38086 2.09453,-0.0174 4.22883,0.0908 6.41797,0.37304 l 16.19922,4.50977 22.94922,9.46679 27.95117,6.97071 V 567.1875 Z"
         transform="scale(0.26458333)" /><path
         style="fill:#ffffff;stroke:none;stroke-width:0.23263;stroke-opacity:1"
         d="m 87.411947,236.1916 c -0.10425,0.0216 -0.37848,0.24089 -0.66042,0.53382 -0.32224,0.33478 -0.48984,0.60875 -0.37207,0.60875 0.25801,0 1.22099,-1.02874 1.0666,-1.13947 -0.008,-0.005 -0.0192,-0.006 -0.0341,-0.003 z"
         id="path1215" /><path
         style="fill:#ffffff;stroke:none;stroke-width:0.23263;stroke-opacity:1"
         d="m 73.013862,230.0173 c -0.0401,-0.006 -0.06751,0.0905 -0.07545,0.28319 -0.01149,0.27887 0.05109,0.43517 0.13901,0.34727 0.08791,-0.0879 0.0971,-0.31596 0.02067,-0.50695 -0.03167,-0.0791 -0.06017,-0.11986 -0.08423,-0.12351 z"
         id="path1213" /><path
         style="fill:#ffffff;stroke:none;stroke-width:0.23263;stroke-opacity:1"
         d="m 103.27817,227.28207 c 0.66093,-0.004 0.30407,0.84292 -0.89607,2.12597 -1.36324,1.45742 -1.66349,1.56318 -2.16369,0.76222 -0.244203,-0.39103 -0.436113,-0.47208 -0.665603,-0.28163 -0.41231,0.3422 -2.46228,0.0746 -2.83083,-0.36949 -0.21751,-0.26209 0.004,-0.39969 0.98805,-0.61185 0.69786,-0.15051 2.16163,-0.57697 3.253033,-0.94826 1.09142,-0.37128 2.13321,-0.67596 2.31511,-0.67696 z"
         id="path1211" /><path
         style="fill:#ffffff;stroke:none;stroke-width:0.23263;stroke-opacity:1"
         d="m 85.966037,226.97149 c -0.0423,-0.0158 -0.059,0.12005 -0.0656,0.3881 -0.033,1.32631 1.28632,3.14306 2.49494,3.43544 0.29105,0.0704 1.12449,0.13033 1.85209,0.13333 l 1.32292,0.005 -1.77664,-0.31678 c -2.11623,-0.37735 -2.96869,-1.0572 -3.50418,-2.79466 -0.17259,-0.55998 -0.26911,-0.8303 -0.3235,-0.8506 z"
         id="path1209" /><path
         style="fill:#503827;fill-opacity:1;stroke:none;stroke-width:0.23263;stroke-opacity:1"
         d="m 111.92984,225.99636 c 0.64087,0.005 1.14871,0.064 1.24023,0.15555 0.12203,0.12202 -0.0886,0.6782 -0.46767,1.2361 -1.00908,1.485 -1.6438,3.51706 -1.84227,5.89679 -0.21264,2.54977 0.25546,3.84926 2.03967,5.66219 0.63829,0.64856 1.44917,1.50323 1.80196,1.89962 0.50256,0.5647 0.55041,0.72089 0.22169,0.72089 -0.57144,0 -3.37409,-3.1028 -4.24056,-4.6948 -0.9035,-1.66002 -1.29233,-4.21673 -1.19683,-7.87291 l 0.076,-2.91041 1.69292,-0.0796 c 0.23278,-0.011 0.46127,-0.0152 0.6749,-0.0134 z"
         id="path1207" /><path
         style="fill:#e6cac7;fill-opacity:1;stroke:none;stroke-width:0.23263;stroke-opacity:1"
         d="m 128.35674,219.96469 c 0.53787,-0.008 3.08037,1.73371 2.89543,2.03295 -0.0868,0.14042 -0.29953,0.25503 -0.47284,0.25476 -0.47682,-0.001 -2.7246,-2.03349 -2.50165,-2.26188 0.0166,-0.017 0.0432,-0.0253 0.0791,-0.0258 z"
         id="path1205" /><path
         style="fill:#e6cac7;fill-opacity:1;stroke:none;stroke-width:0.23263;stroke-opacity:1"
         d="m 127.11599,219.87169 c 0.4593,0 2.51239,2.66145 2.25309,2.92075 -0.13432,0.13433 -0.61543,0.31858 -1.06918,0.40928 -0.92339,0.18468 -0.97352,0.10295 -1.26918,-2.07326 -0.10211,-0.75148 -0.0679,-1.25677 0.0853,-1.25677 z"
         id="path1203" /><path
         style="fill:#503827;fill-opacity:1;stroke:none;stroke-width:0.23263;stroke-opacity:1"
         d="m 68.917988,219.23969 c 0.205896,-0.009 0.887248,0.16221 1.644859,0.41806 2.79985,0.94552 6.532599,3.6677 12.73979,9.29039 3.30201,2.99108 3.90825,3.79811 4.16202,5.53816 l 0.20361,1.39268 0.0326,-1.26969 c 0.0182,-0.70159 -0.15289,-1.63047 -0.38293,-2.07532 -0.53462,-1.03386 -0.37207,-1.16862 0.72244,-0.59945 0.6562,0.34124 1.75896,0.49164 4.27364,0.58394 l 3.38946,0.12454 1.10846,1.35341 c 2.07374,2.53204 4.822613,5.04722 6.339143,5.80016 0.82245,0.40832 2.5193,1.02406 3.77084,1.36839 2.72084,0.74857 7.48978,3.44357 6.98716,3.9486 -0.0831,0.0835 -1.83466,-0.56109 -3.89226,-1.43247 -2.63215,-1.1147 -4.08034,-1.5844 -4.88498,-1.5844 -1.27511,0 -8.363083,1.68062 -9.434563,2.23707 -0.37785,0.19622 -1.74477,1.39476 -3.03754,2.66289 -3.73227,3.66113 -5.31064,4.12616 -7.90236,2.33009 -2.602481,-1.80351 -5.021719,-7.48959 -4.340825,-10.20248 0.0881,-0.35102 0.593553,-1.20529 1.122929,-1.89859 0.77969,-1.02111 1.069925,-1.22727 1.528072,-1.08572 0.311065,0.0961 1.160654,0.19471 1.888254,0.21911 l 1.32292,0.0444 0.0687,-1.32085 c 0.10155,-1.94979 -0.19015,-2.23486 -1.43712,-1.40509 -1.658044,1.10331 -4.10666,3.70608 -4.657599,4.95112 -0.397499,0.89828 -0.474239,1.4653 -0.337447,2.49649 0.239713,1.80703 1.517936,5.03117 2.672189,6.74119 1.391547,2.06158 0.953934,2.31768 -0.533302,0.31213 -1.937565,-2.61283 -3.279334,-5.60913 -3.713467,-8.29097 -0.416388,-2.57222 -2.737236,-10.17247 -3.73724,-12.23956 -0.657735,-1.35959 -2.077257,-2.97515 -2.363163,-2.68924 -0.08443,0.0844 0.10015,0.65088 0.410311,1.25883 0.678037,1.32907 1.284602,3.63857 2.376082,9.04596 1.110309,5.50066 1.421935,6.49693 2.510441,8.02794 0.515043,0.72442 0.936376,1.41401 0.936376,1.53221 0,0.83593 -2.789364,-2.91733 -3.171899,-4.26796 -0.151511,-0.53496 -0.643649,-2.81801 -1.093991,-5.0736 -0.822243,-4.11829 -1.231093,-5.509 -0.894516,-3.0427 0.455202,3.3356 1.52628,7.9603 2.110464,9.11313 0.353568,0.69773 1.675932,2.56416 2.938839,4.14756 1.262903,1.5834 2.647468,3.61938 3.076815,4.52427 1.248675,2.63173 0.838724,2.91421 -0.875916,0.60358 -0.809895,-1.09141 -2.378046,-2.96836 -3.484541,-4.17132 -2.261719,-2.45892 -3.373853,-4.1668 -4.957837,-7.61401 -2.069473,-4.50377 -2.430806,-5.11868 -3.790984,-6.44715 -2.52218,-2.46339 -3.990337,-3.35195 -7.496699,-4.53719 -1.189133,-0.40195 -2.97507,-1.20799 -3.96875,-1.79162 -2.154438,-1.26539 -6.172234,-4.1849 -6.172234,-4.485 0,-0.34233 9.843251,-1.1289 14.048237,-1.1219 3.374657,0.005 3.915921,0.0659 4.291729,0.48111 0.521497,0.57625 2.396117,4.56766 3.256132,6.93291 0.343929,0.94584 0.558197,1.3387 0.476457,0.87282 -0.216308,-1.2328 -1.564439,-4.62924 -2.885096,-7.26829 -0.631579,-1.26208 -1.090306,-2.35293 -1.019575,-2.42363 0.0088,-0.009 0.02846,-0.0137 0.05788,-0.015 z"
         id="path1201" /><path
         style="fill:#ffffff;stroke:none;stroke-width:0.23263;stroke-opacity:1"
         d="m 129.26986,217.06824 c -0.0557,0.0166 0.12383,0.16925 0.48679,0.40256 0.48398,0.31109 1.3174,0.66896 1.85209,0.7953 1.98368,0.46872 1.80289,0.14169 -0.29352,-0.53071 -0.75905,-0.24347 -1.61841,-0.53002 -1.90945,-0.63666 -0.0728,-0.0267 -0.11734,-0.036 -0.13591,-0.0305 z"
         id="path1199" /><path
         style="fill:#503827;fill-opacity:1;stroke:none;stroke-width:0.23263;stroke-opacity:1"
         d="m 63.039793,214.35885 c 0.150892,-0.0188 0.05615,0.38209 -0.410311,2.20555 -0.301784,1.17972 -0.127423,2.32473 0.331245,2.17299 0.164534,-0.0544 0.405554,-0.59525 0.535369,-1.20199 0.129818,-0.60675 0.321749,-1.1033 0.426331,-1.1033 0.246711,0 2.380215,3.29666 2.380215,3.67782 0,0.16001 -0.0893,0.26831 -0.198437,0.24081 -0.109141,-0.0275 -0.912813,-0.0881 -1.785938,-0.13436 -2.909906,-0.15437 -2.875063,-0.1283 -2.698025,-2.0128 0.160486,-1.70833 0.750144,-3.45115 1.27744,-3.77703 0.05945,-0.0367 0.107289,-0.0634 0.142111,-0.0677 z"
         id="path1197" /><path
         style="fill:#ffffff;stroke:none;stroke-width:0.23263;stroke-opacity:1"
         d="m 128.96084,208.36335 c -0.0827,0.009 -0.27339,0.22257 -0.49299,0.56534 -0.56375,0.87995 -1.19334,1.21254 -3.2334,1.70687 -0.6937,0.16809 -1.32208,0.40314 -1.39578,0.52245 -0.0737,0.11931 0.73211,-0.0179 1.79059,-0.30489 1.89302,-0.51324 3.387,-1.58813 3.3755,-2.42879 -6.1e-4,-0.0449 -0.0163,-0.0641 -0.0439,-0.061 z"
         id="path1195" /><path
         style="fill:#ffffff;stroke:none;stroke-width:0.23263;stroke-opacity:1"
         d="m 125.86594,203.8644 -0.53899,0.66145 c -0.29657,0.36381 -0.54218,0.75076 -0.54518,0.8599 -0.0128,0.43313 0.26583,0.15567 0.66456,-0.66146 z"
         id="path1193" /><path
         style="fill:#503827;fill-opacity:1;stroke:none;stroke-width:0.23263;stroke-opacity:1"
         d="m 128.99805,201.11315 c 0.0804,-0.009 0.21937,0.009 0.40772,0.0387 1.86244,0.29274 13.50158,2.68536 16.53646,3.39928 1.81901,0.4279 3.57517,0.83754 3.9026,0.91054 0.81773,0.18225 0.74758,0.60772 -0.13229,0.80253 -1.44049,0.31893 -2.44318,0.68633 -2.61017,0.95653 -0.0936,0.15139 -0.72024,0.51997 -1.39268,0.81856 -0.95063,0.42212 -1.85687,0.55454 -4.07366,0.59634 -3.93739,0.0742 -3.9982,0.13512 -3.82819,3.82767 0.099,2.14984 0.29261,3.22692 0.8568,4.7625 0.90882,2.47364 2.07613,4.81707 2.62619,5.27359 0.23017,0.191 0.41807,0.45211 0.41807,0.5798 0,0.54663 -0.54645,0.14635 -1.3994,-1.02474 -1.18941,-1.63305 -1.71417,-2.70261 -3.21427,-6.54844 -0.68115,-1.74625 -2.19509,-5.10983 -3.36414,-7.47499 -1.85816,-3.75939 -2.31358,-4.47068 -3.622,-5.65237 -1.0655,-0.96229 -1.35226,-1.23785 -1.11104,-1.26555 z"
         id="path1191" /><path
         style="fill:#ffffff;stroke:none;stroke-width:0.23263;stroke-opacity:1"
         d="m 121.32823,192.64958 c 0.091,-0.005 0.18866,0.045 0.29197,0.14831 0.20207,0.20207 0.199,0.59823 -0.0103,1.37563 -0.18396,0.6832 -0.44737,1.09192 -0.70384,1.09192 -0.33456,0 -0.37654,-0.20677 -0.22737,-1.12448 0.15921,-0.97946 0.37646,-1.47776 0.64957,-1.49138 z"
         id="path1187" /><path
         style="fill:#23160e;fill-opacity:1;stroke:none;stroke-width:0.212242px;stroke-linecap:butt;stroke-linejoin:miter;stroke-opacity:1"
         d="m 97.557755,150.58947 -15.459064,2.18352 -8.32944,3.93024 -4.313457,5.63122 -4.206386,15.84326 -0.4822,16.07019 4.372274,11.99091 10.21734,10.30914 4.491038,3.43321 0.894125,5.15076 1.224052,1.83957 7.951721,2.66487 -0.640334,-2.06667 -4.3987,-6.09838 -0.484704,-4.24963 -4.506624,-3.70121 -1.59111,-0.20341 -1.67324,-0.93537 c -0.165537,-2.44859 -0.08687,-4.88531 -0.0047,-7.32185 0.183842,-3.07421 0.360724,-6.14843 0.756044,-9.22264 0.393931,-2.38097 0.739545,-4.76193 1.228912,-7.1429 0.416303,-2.1479 0.928341,-4.29084 1.647334,-6.42304 0.633742,-1.561 1.181231,-3.13391 2.000362,-4.6693 1.149449,-2.32871 2.55422,-3.47828 3.343023,-6.96647 0.280843,-1.7522 0.631459,-2.59305 0.959346,-3.73077 l 1.196434,-2.76183 c 0.432939,-0.81066 0.618204,-1.7128 2.71273,-3.01668 1.652688,-0.73252 1.898778,-0.69853 3.256637,-0.69041 1.970461,0.15058 2.355572,1.14681 3.334712,1.75209 l 3.41321,3.21415 6.47598,6.05161 5.51909,6.43714 2.44708,6.11615 1.03441,5.88341 -0.004,3.84821 -0.82054,1.35228 5.74705,6.13475 1.76714,-2.15595 1.59186,-2.35848 1.75683,-5.17835 2.21955,-3.3857 2.72272,-3.74551 -5.73132,-3.07543 -13.05173,-9.52481 -11.50014,-16.16675 z"
         id="path1322"
         sodipodi:nodetypes="cccccccccccccccccccccccccccccccccccccccccccccc" /><path
         style="fill:#e6cac7;fill-opacity:1;stroke:none;stroke-width:0.23263;stroke-opacity:1"
         d="m 115.34255,192.22945 c 0.28533,-0.0122 0.61624,0.0312 0.99167,0.13229 1.3,0.35006 2.6459,1.55228 5.97173,5.33456 1.99364,2.26726 2.80764,2.98834 4.10776,3.63802 0.89183,0.44565 1.76393,0.81028 1.93786,0.81028 0.45958,0 2.75468,2.51115 4.06901,4.45193 1.43303,2.11607 2.31176,4.07548 3.10575,6.92361 0.75962,2.72489 0.78228,3.68643 0.11679,4.99091 -0.76481,1.4991 -1.13966,1.71567 -2.59054,1.4981 -2.15137,-0.32262 -5.14827,-2.2221 -4.58215,-2.90422 0.20162,-0.24295 0.0119,-0.40287 -0.74776,-0.63045 -0.56004,-0.1678 -1.58967,-0.80821 -2.28771,-1.42265 -0.82355,-0.72492 -1.16085,-0.91458 -0.96067,-0.54054 0.16967,0.31703 0.75333,0.90622 1.29708,1.30948 0.54374,0.40325 1.80873,1.48159 2.8112,2.39624 1.00245,0.91464 2.10378,1.7206 2.44739,1.7911 0.34361,0.0705 0.93033,0.19176 1.3038,0.26976 0.46083,0.0962 0.65165,0.28749 0.59325,0.59531 -0.15001,0.79128 -1.31217,0.66336 -2.7771,-0.30593 -0.7551,-0.49962 -1.77443,-1.04061 -2.26498,-1.20251 -0.60266,-0.1989 -1.13544,-0.67921 -1.64227,-1.48104 -0.85592,-1.35419 -1.01711,-1.46282 -0.78187,-0.52555 0.25491,1.01568 -0.22624,0.79339 -1.46606,-0.67696 -0.62065,-0.73607 -1.19522,-1.2713 -1.27692,-1.18959 -0.0817,0.0817 0.76434,1.08701 1.8805,2.23397 1.98438,2.03918 2.02934,2.11468 2.02934,3.41684 0,0.73241 0.0667,1.50476 0.14779,1.71618 0.25471,0.66377 -0.62042,1.21001 -3.25975,2.03501 -2.22836,0.69652 -2.94581,0.7983 -5.60844,0.7953 -3.81754,-0.005 -4.30611,-0.21094 -4.55063,-1.92029 -0.22265,-1.55654 -0.86356,-2.60205 -2.63394,-4.2938 l -1.38442,-1.32291 0.90537,1.12913 c 0.4982,0.62104 1.27772,1.59294 1.7322,2.15955 0.8065,1.00547 1.39229,3.13005 1.02629,3.72226 -0.0902,0.14594 -0.70915,0.2651 -1.37562,0.2651 -2.07182,0 -7.46639,1.0451 -11.0138,2.13372 -4.718833,1.44811 -5.944663,1.35074 -6.927233,-0.54932 -0.88445,-1.71035 -0.21434,-3.25906 2.21899,-5.13147 2.32859,-1.79181 4.406003,-2.75827 6.646103,-3.09129 1.09142,-0.16225 2.25969,-0.34657 2.59571,-0.40927 0.33602,-0.0627 1.13969,-0.60115 1.78594,-1.19683 1.38986,-1.28112 1.51898,-2.18803 0.57929,-4.05918 -0.52674,-1.04888 -0.67608,-1.16903 -1.29759,-1.04025 -0.38632,0.08 -0.78073,0.0189 -0.87644,-0.13591 -0.11233,-0.18176 -0.59444,-0.0353 -1.36012,0.41341 -1.349,0.79056 -1.67646,0.68786 -1.1529,-0.36173 0.19951,-0.39996 0.40554,-0.81639 0.45734,-0.92553 0.0518,-0.10914 -0.0319,-0.19844 -0.18604,-0.19844 -0.15411,0 -0.2806,0.16243 -0.2806,0.36071 0,0.19827 -0.36886,0.82335 -0.82011,1.38906 -0.45125,0.56571 -1.09466,1.56415 -1.42937,2.21898 -0.814473,1.59349 -1.622483,2.29743 -2.989483,2.6045 -1.46041,0.32805 -2.76707,-0.0238 -3.21841,-0.86713 -0.89731,-1.67664 0.76033,-6.45998 3.06183,-8.83615 l 1.38855,-1.43351 1.805063,0.18035 c 0.99289,0.0991 2.40037,0.36093 3.12797,0.58188 2.95919,0.8986 3.23851,1.13645 2.77192,2.36368 -0.14998,0.39443 -0.15489,0.61136 -0.0119,0.52296 0.13447,-0.0831 0.38765,-0.59579 0.56276,-1.13946 0.17509,-0.54368 0.44918,-1.15309 0.60926,-1.35392 0.23964,-0.30063 0.14654,-0.33297 -0.5271,-0.18501 -0.94267,0.20704 -3.27267,-0.30324 -3.27267,-0.71675 0,-0.15317 0.20836,-0.51289 0.46302,-0.79892 0.4586,-0.51508 0.45441,-0.51526 -0.45527,-0.0496 -0.78183,0.40021 -1.34385,0.44566 -3.77703,0.30644 -1.572103,-0.0899 -3.122973,-0.30024 -3.446823,-0.46715 -1.24483,-0.64159 -1.77973,-1.35822 -1.77973,-2.38538 0,-1.86115 1.917,-3.03606 5.443083,-3.33623 2.05776,-0.17518 4.66834,0.5101 4.55424,1.19527 -0.0538,0.32283 0.43666,0.7187 1.70687,1.37873 0.98017,0.50932 2.29418,1.43205 2.92024,2.05052 0.62606,0.61846 1.35574,1.12448 1.62109,1.12448 0.40877,0 0.45579,0.1427 0.30747,0.93328 -0.15188,0.80958 -0.0667,1.04129 0.64389,1.75183 0.45041,0.45041 0.87988,0.75774 0.95498,0.68264 0.0751,-0.0751 -0.17608,-0.44895 -0.5581,-0.83096 -0.98433,-0.98433 -0.84243,-2.1092 0.27957,-2.21898 0.54994,-0.0538 0.96344,0.0938 1.29759,0.46302 0.64451,0.71218 1.07796,0.69933 0.57619,-0.0171 -0.21726,-0.31019 -1.16218,-0.81824 -2.12286,-1.14154 -0.95223,-0.32045 -1.98168,-0.80871 -2.2872,-1.0852 -0.49668,-0.44949 -0.51117,-0.53496 -0.13746,-0.80822 0.35005,-0.25597 0.2562,-0.33196 -0.57775,-0.46612 -1.33685,-0.21505 -2.26787,-0.8915 -2.10168,-1.52704 0.1078,-0.41221 -0.0177,-0.49816 -0.72708,-0.49816 -0.94035,0 -3.54804,-1.62943 -4.58164,-2.86288 -0.81984,-0.97832 -0.78431,-2.26511 0.0868,-3.13624 0.60076,-0.60075 0.83609,-0.66605 1.93942,-0.53537 0.69056,0.0818 2.57608,0.52925 4.18992,0.99426 2.16921,0.62504 2.89766,0.94052 2.79415,1.21026 -0.077,0.20069 0.28674,0.83764 0.80873,1.41542 0.52199,0.57778 1.11979,1.45845 1.32809,1.95698 0.20831,0.49856 0.62034,0.98324 0.9157,1.07694 0.29537,0.0937 0.91245,0.59854 1.3715,1.12138 0.66269,0.7547 0.81362,1.13352 0.73122,1.83916 -0.0903,0.77377 -0.0274,0.88884 0.48576,0.88884 0.66654,0 1.42058,0.6424 1.42058,1.20974 0,0.43112 0.41866,0.50671 0.65836,0.11886 0.16193,-0.26201 0.88317,0.0389 1.75648,0.73329 0.3601,0.28631 0.45847,0.26922 0.60203,-0.1049 0.12305,-0.32067 -0.24187,-0.83186 -1.29036,-1.80765 -1.79512,-1.67064 -1.92843,-2.36589 -0.42581,-2.2226 1.16822,0.11141 1.20614,-0.17999 0.0563,-0.43253 -0.85144,-0.18701 -2.2913,-1.55003 -2.05001,-1.94045 0.087,-0.14085 0.60611,-0.34427 1.15342,-0.45217 l 0.99477,-0.19637 -1.53427,-0.52142 c -1.96286,-0.66733 -3.23781,-1.95045 -3.77497,-3.79821 -0.5799,-1.9948 -0.20084,-3.09376 1.0356,-3.14658 z"
         id="path1185" /><path
         style="fill:#503827;fill-opacity:1;stroke:none;stroke-width:0.23263;stroke-opacity:1"
         d="m 135.24159,191.12719 c 0.33661,-0.007 0.88098,0.0526 1.62109,0.15761 1.19337,0.16925 3.47883,0.91423 6.45594,2.10478 5.2616,2.10414 8.80785,3.19691 10.39264,3.20291 1.49751,0.005 2.34121,0.48997 2.6014,1.495 0.24044,0.92873 -0.10067,2.13891 -0.66353,2.35489 -0.19538,0.075 -0.88142,-0.38405 -1.52497,-1.02009 -1.24555,-1.23099 -5.04594,-3.00075 -10.02678,-4.66948 -3.97102,-1.33042 -4.0852,-1.08011 -0.58291,1.27589 1.26258,0.84934 3.24797,2.36615 4.41214,3.37085 2.8382,2.44945 3.67771,2.9294 5.69474,3.25665 0.94243,0.1529 1.80289,0.27909 1.91203,0.28009 0.47794,0.005 0.13259,0.55192 -0.58188,0.92139 -0.42933,0.22202 -1.11394,0.40194 -1.52135,0.39894 -1.23965,-0.008 -3.46849,-1.45675 -6.00377,-3.90209 -2.64253,-2.54877 -5.24027,-4.45441 -9.28936,-6.81508 -3.04617,-1.77597 -3.90525,-2.39217 -2.89543,-2.41226 z"
         id="path1183" /><path
         id="path1394"
         style="fill:#e6cac7;fill-opacity:1;stroke:none;stroke-width:0.879234;stroke-opacity:1"
         d="m 330.23848,772.37121 1.7812,-0.54748 3.1772,-2.31752 3.85237,0.10265 2.82581,-1.7253 3.20804,-0.89568 c -0.84824,-0.2193 -1.18706,-0.65736 -0.94052,-1.05624 0.36737,-0.59471 -0.56052,-2.36389 -2.0625,-3.93164 -2.44623,-2.55334 -2.61843,-3.17672 -1.64649,-5.96484 1.15314,-3.30796 4.18584,-8.06901 7.50196,-11.7793 1.68642,-1.88693 2.02697,-3.7076 2.08593,-11.13672 0.0654,-8.24145 0.29257,-9.19468 3.14063,-13.24414 3.30221,-4.69519 7.42969,-13.75101 7.42969,-16.29883 0,-0.9829 -0.47347,-1.47215 -1.27344,-1.46875 -0.79998,0.003 -1.92648,0.50013 -3.22656,1.48828 -1.40519,1.0687 -3.97502,1.45953 -8.64258,1.3125 -5.45492,-0.17159 -7.12469,0.16872 -9.33594,1.90821 l -2.69336,2.11914 3.33594,1.41406 3.33594,1.41601 -2.81446,1.12305 c -3.92027,1.56389 -5.37758,1.40731 -11.91015,-1.27929 l -5.72657,-2.35547 0.2754,4.11132 c 0.25712,3.83959 0.53619,4.1879 4.22656,5.30079 3.82749,1.15419 3.85694,1.19312 0.89258,1.26757 -2.25109,0.0563 -4.47739,-1.1308 -8.41993,-4.49609 -4.42854,-3.78013 -5.50785,-4.30741 -6.21875,-3.03711 -1.24417,2.22323 1.19353,7.27859 6.27149,13 3.7443,4.21871 4.73104,6.34655 7.18555,15.5 4.19195,15.63262 4.1912,15.6294 1.93554,19.95703 -2.00515,3.84681 -2.00534,3.90102 -0.0781,5.82813 0.93841,0.93841 2.07273,3.81213 2.52754,5.68566 z"
         transform="scale(0.26458333)"
         sodipodi:nodetypes="cccccccssssssscccccccccsscssssssc" /><path
         id="path1181"
         style="fill:#ffffff;stroke:none;stroke-width:0.879234;stroke-opacity:1"
         d="m 330.23848,772.37121 c 0.70885,4.36815 -1.24567,7.17441 -5.67989,8.14832 -3.43736,0.755 -4.26996,1.78315 -5.8125,7.18164 l -1.19726,4.18945 -3.35156,-1.40039 c -3.84684,-1.60732 -4.60547,-1.1935 -4.60547,2.51758 0,1.81852 -0.79366,3.0907 -2.5,4.00391 -4.14541,2.21862 -2.50373,11.80939 2.54687,14.88086 1.60809,0.97791 3.94378,3.24966 5.18945,5.04883 1.24567,1.79916 3.51722,4.01313 5.04883,4.91992 2.44891,1.44998 2.89684,1.46974 3.70899,0.1582 1.15385,-1.86357 2.30614,-0.7072 3.98047,3.99219 2.45325,6.88554 2.86888,11.13209 1.42578,14.58594 -1.34839,3.22711 -1.28263,3.42694 2.60937,7.92382 2.19557,2.53675 3.99024,5.19099 3.99024,5.89844 0,0.70745 3.93749,3.11648 8.75,5.35547 9.69876,4.5123 10.25,4.68581 10.25,3.20117 0,-0.56935 -0.74467,-2.17321 -1.65625,-3.56445 -2.58909,-3.95142 -2.04903,-10.78403 1.1875,-15.02734 2.7651,-3.62525 11.75605,-10.69667 19.0039,-14.94532 4.27125,-2.50374 16.20294,-5.42773 22.14844,-5.42773 2.8128,0 4.38735,-0.83461 7.56445,-4.01172 3.69975,-3.69989 3.97036,-4.33404 3.45899,-8.14648 -0.30501,-2.27388 -1.37683,-4.95072 -2.38086,-5.94727 -2.40578,-2.38791 -8.03542,-2.65432 -12.02539,-0.56836 -1.76017,0.92024 -4.1143,1.67383 -5.23047,1.67383 -1.3491,0 -2.69057,1.29677 -4.00195,3.86719 -4.74567,9.30228 -10.02471,13.13281 -18.09571,13.13281 -4.33292,0 -5.5783,-0.45327 -8.04883,-2.92383 -2.5319,-2.5319 -2.92382,-3.66939 -2.92382,-8.5 0,-5.23827 -0.14657,-5.57617 -2.42774,-5.57617 -3.3671,0 -5.8193,2.66327 -4.93164,5.35547 2.09821,6.3637 -0.85467,8.8229 -4.0918,3.4082 -1.07304,-1.79493 -2.02005,-3.93868 -2.10546,-4.76367 -0.0854,-0.825 -1.11787,-3.07494 -2.29493,-5 -1.17702,-1.92495 -2.14881,-4.85001 -2.16015,-6.5 -0.0113,-1.64999 -0.40899,-3.61693 -0.88672,-4.3711 -0.54399,-0.85878 -0.27586,-2.40322 0.7168,-4.13281 1.49178,-2.59922 1.4449,-3.02461 -0.78321,-7.22461 -3.42194,-6.45048 -2.45001,-8.13239 4.22071,-7.3125 2.8851,0.35452 6.92279,1.35983 8.97265,2.23438 2.8218,1.20382 4.0595,1.31275 5.09766,0.45117 1.05849,-0.87848 1.78294,-0.68184 3.17773,0.85937 0.99372,1.09807 2.9964,1.9961 4.45118,1.9961 1.45474,0 3.13729,0.4928 3.73828,1.09375 0.79018,0.79011 1.69179,0.77073 3.25976,-0.0684 2.83571,-1.51763 2.16701,-3.23694 -1.64453,-4.22461 -1.68091,-0.43555 -3.61817,-1.46969 -4.30469,-2.29688 -0.68655,-0.82718 -2.24549,-1.5039 -3.46484,-1.5039 -1.39442,0 -2.64101,-0.9276 -3.35742,-2.5 -0.78202,-1.71632 -1.9388,-2.5 -3.69141,-2.5 -1.40406,0 -2.81218,-0.67501 -3.12891,-1.5 -0.31672,-0.825 -1.45373,-1.5 -2.52734,-1.5 -0.42437,0 -0.50975,-0.32534 -0.93166,-0.31889 -1.34025,-0.0371 -1.9199,0.16329 -2.89451,0.19779 -1.59296,0.15273 -1.6435,1.37356 -3.125,1.67579 -1.99743,0.38305 -2.32577,-1.31559 -3.82422,-1.09766 -1.32923,0.29402 -1.67351,3.45536 -2.84375,3.98047 -1.22783,0.12785 -1.95126,-0.35095 -1.56816,0.92199 z"
         transform="scale(0.26458333)"
         sodipodi:nodetypes="csccsssssssssssssssssssssssssssssssssssssssssssssssssccccccc" /><path
         id="path1173"
         style="fill:#ffffff;fill-opacity:1;stroke:none;stroke-width:0.879234;stroke-opacity:1"
         d="m 410.85352,713.41602 c 0.87652,0.49276 8.37668,0.48528 12.54334,0.61614 4.22774,0.0931 5.17732,0.46238 5.19494,-2.06927 0,-1.44117 -1.26055,-2.62156 -4.25,-3.97851 -5.50715,-2.50069 -8.94316,-2.49009 -10.51563,0.0273 -1.47163,2.35646 -5.46465,2.63237 -7.23437,0.5 -1.61106,-1.94173 -4,-1.93106 -4,0.0156 0,1.36029 3.42543,3.38573 8.25,4.87891 0.006,0.002 0.006,0.008 0.0117,0.01 z"
         transform="scale(0.26458333)"
         sodipodi:nodetypes="ccccccsscc" /><path
         id="path1363"
         style="fill:#e6cac7;fill-opacity:1;stroke:none;stroke-width:0.879234;stroke-opacity:1"
         d="m 377.97461,603.01172 c -0.88971,0 -3.32391,1.70473 -5.4082,3.78906 -3.96242,3.96238 -7.13096,12.37153 -8.4668,22.46094 -0.34583,2.61248 -0.98126,4.75 -1.41016,4.75 -0.4289,0 -2.00327,-2.24998 -3.5,-5 -2.76427,-5.07882 -4.24056,-5.95475 -6.39648,-3.79883 -1.49473,1.49477 -2.90848,0.18196 -3.36524,-3.12305 -0.18406,-1.3319 -0.86679,-2.59505 -1.51562,-2.80859 -1.66364,-0.54754 -2.71363,7.58256 -1.41797,10.98047 0.58866,1.54397 0.65045,2.75 0.14063,2.75 -0.49932,0 -1.19374,-0.90001 -1.54297,-2 -0.34923,-1.09999 -1.00687,-2 -1.46094,-2 -1.4002,0 -2.05535,2.92267 -2.70313,12.04883 -0.72483,10.2116 0.19125,13.27887 7.20118,24.11523 5.83086,9.01361 3.45416,9.17304 -5,0.33594 -3.42006,-3.57498 -6.73954,-6.5 -7.37696,-6.5 -0.63741,0 -1.16015,1.13515 -1.16015,2.52148 0,1.85084 -1.19575,3.36239 -4.5,5.69141 -5.6157,3.95834 -5.72871,6.12018 -0.45899,8.80859 2.22282,1.13401 4.92284,2.94237 6,4.01953 2.22709,2.22709 3.84547,2.42373 7.24024,0.87696 3.51258,-1.60044 13.23207,0.48877 19.03515,4.09179 6.54837,4.06576 7.4154,3.88285 8.3418,-1.75976 l 0.7793,-4.75 0.53125,3.92187 c 1.15472,8.52197 4.5922,4.19511 7.74218,-9.74609 0.89171,-3.94658 1.81337,-6.59926 2.04883,-5.89453 0.89208,2.67084 -1.86823,17.79809 -4.8125,26.37305 -3.02366,8.80622 -3.04382,9.00066 -1.50586,14.29101 0.8575,2.9497 1.5586,7.45495 1.5586,10.01172 0,5.43825 -2.6401,17.86065 -4.6211,21.74219 -2.46277,4.82562 -3.72308,12.68042 -2.30859,14.38476 0.72949,0.87897 1.91295,1.22203 2.83984,0.82227 0.8744,-0.3772 4.51486,-0.83578 8.08985,-1.01758 3.57501,-0.18179 6.6503,-0.34426 6.83398,-0.35937 0.18369,-0.0151 -1.05378,-1.78216 -2.75,-3.92383 -4.25862,-5.37695 -4.13488,-9.25383 0.44141,-13.83008 3.36415,-3.36416 3.75599,-3.49543 8.55078,-2.85938 7.66545,1.01685 28.90866,7.42506 33.54297,10.11915 4.57708,2.66084 5.99603,2.33178 3.88086,-0.9004 -2.52129,-3.85277 -2.80957,-9.78772 -0.64258,-13.25 3.36627,-5.37841 10.54197,-4.75341 17.71094,1.54102 1.99135,1.74841 4.12156,3.01074 4.73437,2.80664 1.73178,-0.57725 4.61209,-9.73434 4.63477,-14.73242 0.0113,-2.6188 -1.43907,-8.6563 -3.46875,-14.44336 -1.91826,-5.46932 -3.91293,-12.5911 -4.4336,-15.82422 -1.67028,-10.37144 -14.72276,-27.57279 -38.14453,-50.26953 -11.31507,-10.96479 -27.71755,-24.46289 -29.72656,-24.46289 -0.57729,0 -1.75125,1.00028 -2.60742,2.22266 -1.37145,1.95766 -1.55664,2.00346 -1.55664,0.38476 0,-1.01072 1.6574,-3.3549 3.68164,-5.20898 3.98313,-3.64823 3.87028,-5.42624 -0.22461,-3.56055 -3.43375,1.56453 -3.69866,1.48278 -2.49219,-0.77149 1.3979,-2.61197 1.31216,-3.0664 -0.58203,-3.0664 z m 14.32422,67.5 -0.0937,8.22266 c -0.12968,11.13809 0.66208,11.93067 10.57226,10.57617 8.66098,-1.18375 11.74988,-0.3696 14.17188,3.73047 1.74406,2.95181 1.74092,2.9707 -0.60938,2.9707 -3.34707,0 -6.00064,2.17717 -5.19922,4.26562 0.36133,0.94201 2.52375,2.18445 4.80469,2.75977 8.45182,2.13173 13.18295,4.40695 17.11328,8.23047 3.62514,3.52683 3.77964,3.8653 1.53321,3.34765 -1.375,-0.31657 -3.28751,-0.58228 -4.25,-0.58984 -2.56012,-0.0914 -4.68815,-0.20336 -6.98828,-0.2168 -4.02871,0.0292 -13.15637,-1.5081 -12.08613,0.0877 2.48131,0.78512 1.85955,4.1135 -0.67559,4.1135 -3.22753,0 -2.30674,2.88586 1.5,4.70117 4.39899,2.09779 4.55725,3.46354 0.25781,2.23047 -1.78386,-0.5116 -3.40868,-0.93164 -3.60938,-0.93164 -0.20054,0 -0.0814,1.125 0.26368,2.5 0.34507,1.37499 0.45428,2.5 0.24414,2.5 -0.21011,0 -2.47552,-2.23641 -5.03321,-4.97071 -5.02715,-5.37464 -6.62304,-8.52132 -6.62304,-13.06836 0,-2.00609 -0.78127,-3.42473 -2.51172,-4.55859 -1.38146,-0.90516 -2.76512,-2.82841 -3.07617,-4.27344 -0.31106,-1.44499 -1.49154,-5.3749 -2.62305,-8.73437 -2.30177,-6.83399 -1.99812,-12.05345 1.10352,-18.89258 z"
         transform="scale(0.26458333)"
         sodipodi:nodetypes="sssssssssssssssssssssscccscsssssssssssssssccsssscsssssccscssssccccsssssscsssscc" /><path
         style="fill:#ffffff;stroke:none;stroke-width:0.23263;stroke-opacity:1"
         d="m 91.249957,184.43871 c 0.349,0.0187 0.74682,0.10876 1.20716,0.26923 0.89773,0.31295 1.02279,0.55344 0.5023,0.96429 -0.1819,0.14358 -1.17072,0.32809 -2.1978,0.40979 -1.48715,0.1183 -2.09329,0.0472 -2.97656,-0.3483 -0.61003,-0.27312 -1.1095,-0.62147 -1.1095,-0.77411 0,-0.41843 0.94755,-0.33293 1.32292,0.11937 0.45687,0.55049 1.22411,0.49568 1.85208,-0.13229 0.37178,-0.37178 0.81775,-0.53914 1.3994,-0.50798 z"
         id="path1179" /><path
         style="fill:#e6cac7;fill-opacity:1;stroke:none;stroke-width:0.23263;stroke-opacity:1"
         d="m 87.902357,181.54845 c 0.2511,-0.0233 0.54136,0.0731 1.0232,0.30282 0.5244,0.25008 2.04858,0.64267 3.38687,0.8723 2.37048,0.40674 3.35897,0.87811 3.35897,1.60249 v 5.1e-4 c 0,0.44901 -0.94591,0.42487 -1.98438,-0.0506 -0.46322,-0.21211 -1.78532,-0.37714 -3.175,-0.39584 -2.80912,-0.0378 -4.19588,-0.44597 -4.31757,-1.27073 -0.0564,-0.38197 0.0552,-0.57309 0.33435,-0.57309 0.23038,0 0.64946,-0.14391 0.93121,-0.31987 0.15533,-0.097 0.29169,-0.15398 0.44235,-0.16795 z"
         id="path1177" /><path
         style="fill:#23160e;fill-opacity:1;stroke:none;stroke-width:0.212242px;stroke-linecap:butt;stroke-linejoin:miter;stroke-opacity:1"
         d="m 104.2575,148.20046 3.59016,-2.54393 5.44161,2.19828 4.69641,3.24229 3.93872,2.65378 4.29274,4.0957 2.77774,4.87387 1.0201,3.91044 -1.18821,5.76237 -3.28653,4.57979 -4.61544,-1.45021 -8.49149,-8.24052 -5.88399,-14.39975 z"
         id="path1397" /><path
         id="path1217"
         style="fill:#503827;fill-opacity:1;stroke:none;stroke-width:0.879234;stroke-opacity:1"
         d="m 392.39062,547.73242 c -1.50746,0.004 -3.10268,0.0121 -4.79882,0.0234 -35.45523,0.24038 -65.91949,6.92737 -91.5,20.08398 -9.98682,5.13642 -12.11126,6.76495 -23.06446,17.66602 -26.79949,26.67194 -80.77803,98.80258 -87.01562,116.27734 -3.03211,8.49453 -0.97299,21.98481 5.44922,35.68946 4.28543,9.14487 14.8775,26.47558 22.63672,37.03906 12.12234,16.50346 42.60368,50.67709 43.99218,49.32031 0.38307,-0.37417 -2.93209,-4.53373 -7.36718,-9.24219 -15.05991,-15.98819 -35.46672,-41.61035 -44.26563,-55.57812 -6.17509,-9.80262 -10.69881,-18.47876 -14.31836,-27.45703 -3.84595,-9.53987 -4.0847,-10.54297 -2.49219,-10.54297 0.58026,0 2.18504,2.58752 3.56446,5.75 7.94396,18.21256 20.23072,36.25999 41.31054,60.67578 11.27686,13.06148 33.50593,32.40439 71.07032,61.83984 11.51753,9.02514 15.03055,12.36212 17.08008,16.22461 4.6275,8.721 11.48201,11.50977 28.27929,11.50977 6.59358,0 9.81697,0.42329 11.19922,1.46875 2.73404,2.06793 3.44141,1.88352 3.44141,-0.89258 0,-2.85422 -4.4295,-7.57751 -10.33399,-11.01953 -7.96074,-4.64069 -27.42248,-12.58761 -29.17773,-11.91406 -1.51389,0.58095 -1.63849,0.14456 -1.0586,-3.74219 0.36091,-2.42026 1.36959,-7.47067 2.24024,-11.22461 1.81512,-7.82612 1.14564,-10.47741 -3.37305,-13.3418 -3.13818,-1.98931 -19.67036,-15.28454 -31.79687,-25.57226 -20.14338,-17.08899 -28.95636,-34.09437 -36.67188,-70.76172 -2.90532,-13.80726 -3.25474,-17.19278 -3.19922,-31 0.0511,-12.69785 0.54171,-17.80992 2.70703,-28.27539 5.25627,-25.40474 12.52335,-50.03688 18.46875,-62.59375 4.965,-10.48623 15.32176,-17.72591 28.69532,-20.0586 26.33857,-4.59412 32.31526,-5.01271 37.95508,-2.65625 6.77593,2.83117 6.8907,3.94182 2.42968,23.41602 -5.97324,26.07523 -11.15671,37.75991 -25.76172,58.06055 -4.28767,5.95974 -8.59342,12.80834 -9.56836,15.2207 -1.02816,2.54396 -2.35355,10.40817 -3.15429,18.72461 -1.07843,11.20044 -2.38631,17.83428 -5.97461,30.3125 -2.77324,9.64388 -4.94559,19.61516 -5.48242,25.16211 -1.2085,12.48695 -1.19371,13.34022 0.18945,11.95703 0.62234,-0.6223 1.53447,-5.55102 2.02734,-10.95117 0.84467,-9.25459 4.42368,-24.28567 8.83789,-37.11524 1.16857,-3.39636 2.3493,-10.75964 2.91797,-18.20312 1.3516,-17.69155 2.58051,-20.74539 15.04492,-37.39258 4.48593,-5.99134 9.53104,-13.61948 11.21289,-16.95117 5.81821,-11.52582 11.67368,-28.37455 14.3125,-41.18359 1.45739,-7.07407 3.28857,-14.38953 4.06836,-16.25586 2.3613,-5.65138 7.18034,-10.89348 11.66407,-12.6875 11.83721,-4.73636 22.38246,3.95091 39.41797,32.4707 8.27803,13.85854 14.93454,23.28891 19.15234,27.13476 23.29652,21.24201 54.96635,45.98164 68.28125,53.33985 14.33374,7.92132 15.54217,10.27035 9.07227,17.63476 -4.85284,5.52382 -7.03776,9.82747 -12.65626,24.92774 -5.20195,13.98077 -6.45735,16.58709 -10.03906,20.84375 -4.42847,5.26291 -0.16657,3.742 4.57032,-1.63086 4.6998,-5.33106 6.91587,-9.32756 9.42578,-17 1.74595,-5.33707 3.2918,-7.31518 2.14453,-2.74414 -0.34583,1.37817 0.0886,5.54069 0.96484,9.25 0.87628,3.70934 1.57749,9.09096 1.55859,11.95898 -0.0302,4.80465 1.13045,7.37734 2.64649,5.86133 0.3428,-0.34284 0.50823,-5.25955 0.36914,-10.92578 -0.20107,-8.20539 0.0573,-10.55747 1.26367,-11.55859 2.68887,-2.23159 4.86496,-0.73222 9.14649,6.29687 5.22062,8.57068 9.74322,12.41658 19.66992,16.73242 5.27868,2.29501 7.77369,3.92153 7.78125,5.07031 0.008,0.93003 0.42259,1.94399 0.92383,2.25391 2.32365,1.43611 27.90125,6.55469 32.7539,6.55469 6.16222,0 6.2471,-0.98437 0.33985,-3.99805 -2.12293,-1.08302 -8.52959,-6.66008 -14.23633,-12.39453 -6.64966,-6.68198 -13.7683,-12.62404 -19.82227,-16.54492 -11.16733,-7.23239 -26.67162,-15.33409 -32.8457,-17.16406 l -4.39844,-1.30469 -2.85156,3.41601 c -3.89034,4.66001 -3.58529,3.20646 1.29687,-6.17773 3.06891,-5.89882 5.60273,-9.18977 9.73829,-12.65234 10.86946,-9.10069 14.06391,-12.65575 13.45703,-14.97657 -0.69075,-2.64151 -10.17077,-13.10454 -17.70703,-19.54296 l -5.57227,-4.76172 -4.52734,4.72461 c -2.48905,2.59766 -4.28429,4.96376 -3.99024,5.25781 0.29405,0.29405 2.51532,-0.54987 4.9375,-1.87305 3.99689,-2.18339 4.64862,-2.27372 7.04688,-0.99023 3.4817,1.86338 14.46875,13.64821 14.46875,15.51953 0,1.80918 0.38232,1.8344 -6.09375,-0.41797 -8.40541,-2.92339 -16.14,-6.56662 -22.29493,-10.50391 -4.70691,-3.01096 -5.47236,-3.89333 -4.65624,-5.35937 1.57719,-2.83317 9.75551,-24.38703 10.94531,-28.8457 3.58745,-13.44375 3.01008,-20.70561 -2.52149,-31.67969 -8.46209,-16.78813 -21.30279,-30.02082 -44.18945,-45.53907 -27.89669,-18.91532 -30.77847,-20.4952 -53.39063,-20.46874 z m 20.47461,8.33985 c 0.49254,-0.0261 2.471,0.87849 5.36915,2.39062 2.89814,1.51213 6.71658,3.63152 10.88867,6.0332 8.34417,4.80337 18.10399,10.73746 24.7539,15.20703 2.05516,1.38133 3.7843,2.59206 5.32813,3.76563 1.54383,1.17357 2.9034,2.30888 4.22265,3.54297 2.63851,2.46817 5.11352,5.32673 8.57422,9.64648 3.66398,4.57348 6.63023,8.64616 8.94727,12.36914 1.15852,1.8615 2.15534,3.63483 2.99609,5.33985 0.84075,1.70502 1.52493,3.34176 2.06055,4.92773 0.53562,1.58598 0.92288,3.12259 1.16602,4.62696 0.24313,1.50436 0.34334,2.97731 0.30664,4.4375 -0.0367,1.46018 -0.21172,2.90594 -0.51563,4.35937 -0.30391,1.45343 -0.73841,2.91432 -1.29687,4.39844 -0.83882,2.22915 -1.764,4.29366 -2.76368,6.1875 -0.99967,1.89384 -2.07268,3.61732 -3.20703,5.16015 -1.13434,1.54284 -2.32943,2.90591 -3.57226,4.08204 -1.24283,1.17612 -2.53425,2.16525 -3.85938,2.95898 -1.32512,0.79373 -2.68517,1.39148 -4.0664,1.78711 -1.38124,0.39563 -2.78221,0.58848 -4.19336,0.57031 -1.41116,-0.0182 -2.83122,-0.24765 -4.2461,-0.69531 -1.41488,-0.44766 -2.82632,-1.11301 -4.21875,-2.00586 -1.34517,-0.86254 -2.9526,-2.13171 -4.64844,-3.625 -1.69583,-1.49329 -3.47944,-3.2121 -5.17382,-4.9707 -1.69438,-1.75861 -3.29982,-3.55834 -4.64063,-5.2168 -1.34081,-1.65846 -2.41761,-3.17431 -3.05273,-4.36719 -0.71301,-1.33916 -1.21813,-2.8653 -1.51758,-4.58008 -0.29945,-1.71477 -0.39184,-3.61902 -0.27734,-5.71679 0.11449,-2.09778 0.43602,-4.38879 0.96484,-6.87696 0.52881,-2.48816 1.26351,-5.17264 2.20703,-8.05859 0.87764,-2.68452 1.67547,-5.61439 2.25391,-8.16992 0.57843,-2.55553 0.9375,-4.73674 0.9375,-5.92969 0,-1.45408 -0.24152,-2.87191 -0.75391,-4.29101 -0.51239,-1.41911 -1.29517,-2.84039 -2.375,-4.29883 -1.07983,-1.45844 -2.45586,-2.95527 -4.1582,-4.52735 -1.70234,-1.57207 -3.73143,-3.2185 -6.11133,-4.97851 -2.03341,-1.5038 -4.20664,-3.26612 -6.07227,-4.89453 -1.86562,-1.62842 -3.42367,-3.12291 -4.2207,-4.08985 -0.72316,-0.8773 -1.50875,-2.10785 -2.27148,-3.48828 -0.76274,-1.38043 -1.50242,-2.91132 -2.13086,-4.38672 -0.62845,-1.47539 -1.14651,-2.89639 -1.4668,-4.05859 -0.32029,-1.1622 -0.44298,-2.06502 -0.28125,-2.50586 0.0129,-0.0359 0.0517,-0.0552 0.11523,-0.0586 z"
         transform="scale(0.26458333)" /></g></g></svg>
