<?xml version="1.0" encoding="UTF-8" standalone="no"?>
<!-- Created with Inkscape (http://www.inkscape.org/) -->

<svg
   width="66.397781mm"
   height="91.843597mm"
   viewBox="0 0 66.397781 91.843597"
   version="1.1"
   id="svg1292"
   inkscape:version="1.2 (dc2aedaf03, 2022-05-15)"
   sodipodi:docname="r2.svg"
   xmlns:inkscape="http://www.inkscape.org/namespaces/inkscape"
   xmlns:sodipodi="http://sodipodi.sourceforge.net/DTD/sodipodi-0.dtd"
   xmlns="http://www.w3.org/2000/svg"
   xmlns:svg="http://www.w3.org/2000/svg">
  <sodipodi:namedview
     id="namedview1294"
     pagecolor="#505050"
     bordercolor="#ffffff"
     borderopacity="1"
     inkscape:showpageshadow="0"
     inkscape:pageopacity="0"
     inkscape:pagecheckerboard="1"
     inkscape:deskcolor="#505050"
     inkscape:document-units="mm"
     showgrid="false"
     inkscape:zoom="0.2102413"
     inkscape:cx="-1771.7737"
     inkscape:cy="-394.78447"
     inkscape:window-width="1800"
     inkscape:window-height="1144"
     inkscape:window-x="0"
     inkscape:window-y="28"
     inkscape:window-maximized="1"
     inkscape:current-layer="layer1" />
  <defs
     id="defs1289" />
  <g
     inkscape:label="Layer 1"
     inkscape:groupmode="layer"
     id="layer1"
     transform="translate(-440.83339,-252.35727)">
    <path
       d="m 472.30612,252.35727 c 1.08973,1.68063 3.21628,0.75282 4.93889,0.71084 3.73098,-0.0917 7.27499,0.18027 10.58334,2.06658 4.14901,2.36537 8.28851,5.67302 10.6172,9.92258 1.58891,2.90018 1.77941,5.79014 3.84668,8.46666 -11.06417,-2.95769 -21.35505,-2.39042 -32.45555,0.39758 -2.79082,0.70097 -9.33884,1.58292 -9.87777,4.89409 14.10581,-3.23391 26.32004,-7.2457 40.92221,-4.23333 l 3.12138,6.00392 -0.1972,5.63774 3.32387,12.34723 0.10195,20.46111 h -2.46944 v 0.35277 h 2.46944 v 0.70556 h -4.93889 v 0.35278 h 4.93889 v 2.46944 l -4.58611,-0.70555 h -0.35278 c -0.54892,0.63958 -0.86219,0.63958 -1.41111,0 h -0.35278 c -0.81421,1.41322 -9.16516,1.32679 -9.52499,-0.35278 h -0.35278 v 1.05833 l -3.175,-0.70555 h -0.35278 l -5.99722,0.65969 -17.99166,0.0459 -4.02647,-24.34166 -2.05105,-13.40027 2.54974,-5.29696 h -1.76389 v -1.76389 l -3.88056,1.76389 c 1.47758,-1.81363 4.03684,-2.28635 5.43158,-4.01814 1.37026,-1.7018 0.22892,-5.98946 -0.13991,-7.9763 l -6.35,3.88055 5.9877,-5.01403 3.25966,-9.38353 9.44986,-5.00521 h 0.70555 m -6.34999,13.40555 c -6.45986,0.29528 -4.97643,4.22663 -4.58611,9.17222 6.55884,-0.53587 4.62809,-4.08093 4.58611,-9.17222 h 0.35278 c 0.9652,1.65982 2.61478,0.89006 4.23332,0.56445 3.48051,-0.70027 7.04321,-1.69369 10.58334,-1.97556 0.55456,-1.5173 2.21227,-2.10608 2.03623,-3.88232 -0.15663,-1.57938 -0.98425,-5.32412 -2.23485,-6.37011 -1.43474,-1.19909 -3.79624,-0.45226 -5.44583,-0.33972 -2.14841,0.14675 -5.83106,0.22436 -7.65033,1.47778 -2.05176,1.41394 -2.84339,8.4769 -1.87466,10.52548 m 10.9361,-8.46666 -7.40833,-0.70556 c 2.25707,-2.18087 5.59717,-1.72508 7.40833,0.70556 m -14.1111,-1.76389 v 0.35277 c -6.73488,4.60517 -11.45607,13.50222 -12.55,21.51945 -0.40372,2.95875 0.36206,5.90867 0.81142,8.81944 0.15819,1.02447 0.71508,2.76719 0.082,3.69923 -0.66163,0.97437 -2.46856,0.98213 -3.51282,1.23966 v -35.63055 h 15.16945 m 38.09999,0 v 10.58333 h -0.35278 l -9.52499,-10.58333 h 9.87777 m -27.16389,1.05833 -2.11666,0.70556 v -0.70556 h 2.11666 m 3.17501,1.41111 c -1.52965,3.2505 -6.07978,4.34658 -8.46667,1.41111 3.48509,1.78047 5.59682,1.15359 8.46667,-1.41111 m 3.52777,3.175 -4.23333,1.43969 -10.58333,1.73531 14.81666,-3.175 m 9.525,3.52778 h 0.35278 c 3.5e-4,4.30424 0.72143,6.34682 5.29167,6.35 -0.0487,-2.28142 -0.7306,-6.76698 -2.89772,-8.05074 -2.19357,-1.29964 -9.95821,-0.40817 -10.64436,2.41159 -0.74084,3.0427 3.1877,5.449 5.76545,4.11585 1.78717,-0.92427 2.05351,-3.0226 2.13218,-4.8267 m -0.70555,-1.41111 0.70555,1.41111 h -0.35277 l -0.35278,-1.41111 m 4.93889,0 c 1.02552,3.74967 1.38183,7.91563 5.64444,8.46666 -0.2928,-3.58633 -1.49084,-8.27369 -5.64444,-8.46666 m -8.81945,0.35278 v 0.35277 l -1.41111,0.35278 1.41111,-0.70555 m 3.175,3.52777 c -1.62207,-0.48789 -2.09656,-1.55222 -1.76389,-3.175 1.43793,0.72531 1.71309,1.61008 1.76389,3.175 m -17.63889,5.29167 11.28889,-1.76389 -1.41111,-5.64444 c -2.05599,0.38311 -9.01206,0.24906 -10.01748,2.26942 -0.66463,1.33597 0.12771,3.67418 0.1397,5.13891 m 13.05278,-7.40833 c 0.32174,1.59032 1.04669,2.41864 2.46945,3.175 -2.02565,0.56338 -5.49981,-2.16571 -2.46945,-3.175 m -7.04003,1.57092 c 2.86985,-0.70662 3.97016,3.61032 1.03646,4.25767 -2.78377,0.61454 -3.7779,-3.58281 -1.03646,-4.25767 m -9.54052,6.89574 2.82222,-0.35277 -0.70556,-5.99723 c -3.50731,0.56374 -2.23061,3.69641 -2.11666,6.35 m -5.64445,-5.64444 0.70556,1.41111 2.82222,-0.70556 v 0.35278 l -3.88055,1.05834 0.35277,-2.11667 m 0.35278,3.52778 1.41111,2.11666 v 0.35278 l -1.41111,0.35278 v -2.82222 m 30.69167,4.58652 0.35277,0.35278 -0.35277,-0.35278 m -32.45556,10.58333 c 9.32215,-3.87597 19.83493,-6.26604 29.98611,-6.35 -0.10195,-4.20088 -4.39349,-2.66665 -7.40833,-2.46062 -5.85893,0.40005 -11.66389,2.02388 -17.28611,3.62126 -3.20181,0.90981 -6.26544,1.08585 -5.29167,5.18936 m 32.10278,-9.17222 0.35278,3.52778 h 0.35277 l -0.70555,-3.52778 m 2.11666,3.175 v 1.41111 h 0.35278 l -0.35278,-1.41111 m 1.05834,0 v 0.35278 h 2.82222 l -2.82222,-0.35278 m 11.64166,0 v 8.46667 h -0.35277 l -1.41111,-8.11389 1.76388,-0.35278 m -7.17303,0.47025 0.23495,0.11783 -0.23495,-0.11783 m -6.93808,0.2353 v 1.41112 h 0.35278 l -0.35278,-1.41112 m 7.40834,0.35278 v 1.05834 h 0.35277 l -0.35277,-1.05834 m -4.58611,0.35278 v 0.35278 l 4.23333,0.35278 -4.23333,-0.70556 m -34.57222,9.17222 10.58333,-3.88055 c 1.09608,1.5501 2.97109,0.79375 4.58611,0.50235 3.77296,-0.68051 7.52933,-1.4418 11.28889,-2.19569 1.14758,-0.23001 4.21887,-0.78387 2.75731,-2.68005 -1.01847,-1.32186 -5.46947,-0.5655 -6.99065,-0.5655 -6.18243,3.5e-4 -10.85003,2.15159 -16.58055,3.77825 -3.21768,0.91334 -6.79933,0.87983 -5.64444,5.04119 m 33.51388,-8.46666 v 1.41111 h 0.35278 l -0.35278,-1.41111 m 1.05834,0 v 1.05833 h 0.35277 l -0.35277,-1.05833 m -2.46945,0.70555 v 1.41111 h 0.35278 l -0.35278,-1.41111 m 6.70278,0 v 1.05833 h 0.35278 l -0.35278,-1.05833 m 0.70555,0 v 1.05833 h 0.35278 l -0.35278,-1.05833 m -43.03888,0.35278 c -0.58103,5.42113 1.81169,12.27525 2.82222,17.63889 l 17.99167,-4.58611 v -0.35278 c -5.63245,0.242 -12.53667,1.84714 -17.63889,4.23333 l -1.05833,-6.35 c 8.18197,-3.1563 16.70649,-5.32024 25.39999,-6.44948 2.44722,-0.31785 7.39846,-1.77165 8.81945,0.80504 h 0.35277 l -0.35277,-3.175 h -0.35278 v 1.41111 c -10.63907,0 -24.35225,1.6831 -33.86666,6.70278 l -2.11667,-9.87778 m 37.39444,0.70555 v 1.41112 h 0.35278 l -0.35278,-1.41112 m 1.05833,0 v 1.05834 h 0.35278 l -0.35278,-1.05834 m 4.23334,0.70556 v 1.41111 h 0.35277 l -0.35277,-1.41111 m 0.70555,0 v 1.05833 h 0.35278 l -0.35278,-1.05833 m -4.58611,1.05833 v 1.05834 h 0.35278 l -0.35278,-1.05834 m -1.05833,0.35278 v 1.05833 h 0.35278 l -0.35278,-1.05833 m 5.99722,0.35278 v 1.05833 h 0.35278 l -0.35278,-1.05833 m -0.70556,0.35278 v 1.05833 h 0.35278 l -0.35278,-1.05833 m -3.88055,0.70555 v 1.41111 h 0.35278 l -0.35278,-1.41111 m -1.05833,0.35278 v 1.41111 h 0.35277 l -0.35277,-1.41111 m 5.99722,0.35278 v 1.05833 h 0.35278 l -0.35278,-1.05833 m -39.86389,5.99722 0.35278,3.52778 17.99166,-3.88056 c 1.282,-2.32551 9.28335,-2.10432 11.99445,-2.46944 l -0.35278,-2.82222 -9.87778,1.28622 -13.40555,1.66935 -6.70278,2.68887 m 39.15833,-5.64444 v 1.05833 h 0.35278 l -0.35278,-1.05833 m -6.5853,0.94085 0.11783,0.23495 -0.11783,-0.23495 m 2.70475,-0.2353 v 1.41111 h 0.35277 l -0.35277,-1.41111 m -1.05834,0.35278 v 1.41111 h 0.35278 l -0.35278,-1.41111 m 5.29167,0.70555 v 1.05834 h 0.35278 l -0.35278,-1.05834 m 0.70556,0 v 1.05834 h 0.35277 l -0.35277,-1.05834 m -7.40834,0.70556 v 1.05833 h 0.35278 l -0.35278,-1.05833 m 2.82222,0 v 1.41111 h 0.35278 l -0.35278,-1.41111 m -47.27221,0.35278 c 0,10.14095 3.4866,19.09374 4.93888,28.92778 l -2.07204,-4.58612 -2.51407,-11.64166 -2.36248,5.99722 2.36248,10.93611 h -0.35277 c -3.81618,-8.86742 -4.58611,-19.41371 -4.58611,-28.92778 l 4.58611,-0.70555 m 46.21388,0.35278 v 1.05833 h 0.35278 l -0.35278,-1.05833 m -51.50555,0.35277 c 0,4.94877 0.39945,9.92117 1.15524,14.81667 0.3507,2.27154 1.50668,4.60551 -0.44968,6.35 -0.76306,-5.19007 -2.7964,-10.22174 -2.82194,-15.52222 -0.0118,-2.44369 -0.59574,-4.76568 2.11638,-5.64445 m 56.79722,0 v 1.05834 h 0.35278 l -0.35278,-1.05834 m 0.70555,0 v 1.05834 h 0.35278 l -0.35278,-1.05834 m -7.40833,1.05834 -2.11667,0.70555 v 0.35278 c 0.90841,-0.0148 2.30788,0.10089 2.11667,-1.05833 m 2.82222,0 v 1.05833 h 0.35278 l -0.35278,-1.05833 m -1.05833,0.35277 v 1.05834 h 0.35278 l -0.35278,-1.05834 m 5.29167,0.35278 v 1.05834 h 0.35277 l -0.35277,-1.05834 m 0.70555,0 v 1.05834 h 0.35278 l -0.35278,-1.05834 m -13.75833,0.35278 v 0.35278 h 2.11666 l -2.11666,-0.35278 m -3.175,0.35278 v 0.35278 h 1.76389 l -1.76389,-0.35278 m -2.46945,0.35278 v 0.35277 h 1.76389 l -1.76389,-0.35277 m 14.81667,0 v 1.05833 h 0.35278 l -0.35278,-1.05833 m -17.28611,0.35277 v 0.35278 h 1.76389 l -1.76389,-0.35278 m 16.22778,0 v 1.41111 h 0.35277 l -0.35277,-1.41111 m -18.34445,0.35278 v 0.35278 h 1.76389 l -1.76389,-0.35278 m 14.11111,0 v 0.35278 h 1.76389 l -1.76389,-0.35278 m 2.11667,0 0.35278,1.41111 h 0.35278 l -0.70556,-1.41111 m 8.11389,0 v 1.05833 h 0.35278 l -0.35278,-1.05833 m -13.40556,0.35278 v 0.35278 h 2.11667 l -2.11667,-0.35278 m 12.7,0 v 1.05833 h 0.35278 l -0.35278,-1.05833 m -15.875,0.35278 v 0.35277 h 2.11667 l -2.11667,-0.35277 m -2.11666,0.35277 v 1.41112 h 0.35278 l 0.35277,-1.41112 h -0.70555 m 14.11111,0 v 1.41112 h 0.35278 l -0.35278,-1.41112 m -22.93056,24.69445 10.93611,-1.76389 c -0.10512,-5.09976 -1.57868,-10.51243 -2.53894,-15.52222 -0.35771,-1.86584 -0.27799,-4.57624 -1.23684,-6.23641 -0.9271,-1.60514 -9.79628,0.0325 -10.44363,1.74872 -0.60431,1.60091 0.51188,4.59881 0.78564,6.25158 0.85407,5.15725 1.83903,10.3378 2.49766,15.52222 m 15.52222,-24.34167 v 0.35278 h 2.11667 l -2.11667,-0.35278 m 2.82223,0 0.70555,0.70556 v -0.70556 h -0.70555 m -7.05556,0.35278 v 0.35278 h 2.11667 l -2.11667,-0.35278 m 10.58333,0 v 1.05833 h 0.35278 l -0.35278,-1.05833 m 5.99723,0 v 1.05833 h 0.35277 l -0.35277,-1.05833 m -17.63889,0.35278 0.35278,0.35278 -0.35278,-0.35278 m 9.87778,0 v 1.05833 h 0.35277 l -0.35277,-1.05833 m 7.17303,0.2353 0.11782,0.23495 -0.11782,-0.23495 m -24.81192,0.5715 c 4.16172,-0.49107 6.47947,5.26133 4.47393,8.63776 -0.82233,1.3843 -3.3708,1.5935 -4.82671,1.73673 -5.69278,0.56092 -5.64409,-9.66682 0.35278,-10.37449 m 20.81389,-0.10125 v 1.41111 h 0.35277 l -0.35277,-1.41111 m -20.10834,0.54222 c -5.64162,0.18027 -6.27521,9.43716 -1.05833,9.29711 1.48837,-0.0399 3.61103,-0.33091 4.38291,-1.77236 1.27565,-2.38301 -0.18979,-7.62494 -3.32458,-7.52475 m 5.99723,0.16334 v 1.05833 h 0.35277 l -0.35277,-1.05833 m 1.05833,0 v 1.05833 h 0.35278 l -0.35278,-1.05833 m 11.99444,0 v 1.05833 h 0.35278 l -0.35278,-1.05833 m -27.86944,0.35278 0.35278,1.05833 h 0.35277 v -1.05833 h -0.70555 m 26.10555,0 v 1.05833 h 0.35278 l -0.35278,-1.05833 m 7.05556,0 v 1.05833 h 0.35278 l -0.35278,-1.05833 m 0.70555,0 v 1.05833 h 0.35278 l -0.35278,-1.05833 m -35.04247,0.47025 0.23495,0.11783 -0.23495,-0.11783 m -1.41111,0.35278 0.23495,0.11782 -0.23495,-0.11782 m 27.75162,0.11782 0.11782,0.23495 -0.11782,-0.23495 m 4.11585,-0.2353 v 1.41111 h 0.35278 l -0.35278,-1.41111 m -38.45277,2.46945 1.41111,7.05555 5.99722,-1.76389 v -0.35277 l -5.64444,1.76388 c -0.67134,-5.28461 -1.29999,-6.66326 4.23333,-8.46666 -1.8602,-0.54998 -4.38714,0.84843 -5.99722,1.76389 m 19.40277,-1.76389 v 0.35278 l -5.64444,1.05833 c 1.11584,-1.67252 3.7779,-1.39559 5.64444,-1.41111 m 4.93889,0 v 1.41111 h 0.35278 l -0.35278,-1.41111 m 1.05834,0 v 1.05833 h 0.35277 l -0.35277,-1.05833 m 11.99444,0 v 1.41111 h 0.35278 l -0.35278,-1.41111 m -1.76389,0.35278 v 1.05833 h 0.35278 l -0.35278,-1.05833 m 7.05556,0 v 1.05833 h 0.35277 l -0.35277,-1.05833 m 0.82303,0.2353 0.11783,0.23495 -0.11783,-0.23495 m -33.63137,0.11747 v 1.05834 h 0.35278 l -0.35278,-1.05834 m 24.81192,0.58808 0.11783,0.23495 -0.11783,-0.23495 m 4.11586,0.11748 v 1.05833 h 0.35278 l -0.35278,-1.05833 m -18.34444,0.70555 -5.99722,1.41112 c 1.46014,-1.37407 4.06011,-1.73779 5.99722,-1.41112 m 4.23333,-0.35277 v 1.41111 h 0.35278 l -0.35278,-1.41111 m 1.05833,0 v 1.05833 h 0.35278 l -0.35278,-1.05833 m 11.99445,0 v 1.41111 h 0.35278 l -0.35278,-1.41111 m 5.29166,0.35277 v 1.05834 h 0.35278 l -0.35278,-1.05834 m 0.70556,0 v 1.05834 h 0.35278 l -0.35278,-1.05834 m -57.85555,0.35278 0.35278,0.35278 -0.35278,-0.35278 m 50.09444,0 v 1.05834 h 0.35278 l -0.35278,-1.05834 m -25.75278,0.35278 v 1.41111 h 0.35278 l -0.35278,-1.41111 m 28.92778,0 v 1.41111 h 0.35278 l -0.35278,-1.41111 m -4.23333,0.35278 0.35277,0.35278 -0.35277,-0.35278 m -9.87778,0.35278 v 1.41111 h 0.35278 l -0.35278,-1.41111 m 1.05833,0 v 1.05833 h 0.35278 l -0.35278,-1.05833 m 11.99445,0.35277 v 1.05834 h 0.35277 l -0.35277,-1.05834 m 5.29166,0 v 1.05834 h 0.35278 l -0.35278,-1.05834 m 0.70556,0 v 1.05834 h 0.35278 l -0.35278,-1.05834 m -23.28333,0.70556 v 0.35278 l -5.99723,1.05833 c 1.2312,-1.8094 4.02978,-1.9872 5.99723,-1.41111 m 15.52222,-0.35278 v 1.05833 h 0.35277 l -0.35277,-1.05833 m -1.05834,0.35278 v 1.05833 h 0.35278 l -0.35278,-1.05833 m 4.23334,0.35278 v 1.05833 h 0.35277 l -0.35277,-1.05833 m -28.92778,0.35276 -0.35278,0.70556 h 0.70556 l -0.35278,-0.70556 m 15.875,0 v 1.05834 h 0.35278 l -0.35278,-1.05834 m -1.05833,0.35278 v 1.05834 h 0.35277 l -0.35277,-1.05834 m 13.05277,0 v 1.05834 h 0.35278 l -0.35278,-1.05834 m 5.99723,0 v 1.05834 h 0.35277 l -0.35277,-1.05834 m -35.04248,0.47025 0.23495,0.11783 -0.23495,-0.11783 m 27.28136,-0.11747 v 1.05833 h 0.35278 l -0.35278,-1.05833 m 7.17304,0.2353 0.11782,0.23495 -0.11782,-0.23495 m -35.51273,0.23495 0.23495,0.11783 -0.23495,-0.11783 m 27.28136,-0.11747 v 1.05833 h 0.35278 l -0.35278,-1.05833 m 4.23333,0.35278 v 1.05833 h 0.35278 l -0.35278,-1.05833 m -13.05277,0.35277 v 1.05834 h 0.35278 l -0.35278,-1.05834 m -1.05834,0.35278 v 1.05833 h 0.35278 l -0.35278,-1.05833 m 19.05,0 v 1.05833 h 0.35278 l -0.35278,-1.05833 m -34.57222,0.35278 v 0.35278 l 1.05834,0.35277 -1.05834,-0.70555 m 26.81111,0 v 1.05833 h 0.35278 l -0.35278,-1.05833 m 1.76389,0 v 1.05833 h 0.35278 l -0.35278,-1.05833 m 5.40914,0.2353 0.11783,0.23495 -0.11783,-0.23495 m -35.39525,0.11748 v 0.35277 h 1.05833 l -1.05833,-0.35277 m 10.58333,0.10265 c 3.98287,-0.42262 6.25511,5.96865 4.20053,8.98914 -0.90946,1.33632 -3.41665,1.53493 -4.90608,1.67393 -3.39549,0.31679 -4.76074,-4.92337 -3.97157,-7.59037 0.65228,-2.2038 2.61796,-2.85433 4.67712,-3.0727 m 16.58056,-0.10265 v 1.05833 h 0.35278 l -0.35278,-1.05833 m -28.575,0.35277 v 0.35278 h 1.05833 l -1.05833,-0.35278 m 12.7,0.27235 c -3.73874,-0.23001 -5.15479,2.45498 -4.61433,5.72488 0.27022,1.63547 0.49318,3.58669 2.49943,3.81423 1.54763,0.17568 4.28836,-0.3048 5.12868,-1.74837 1.34691,-2.31457 0.002,-7.60518 -3.01378,-7.79074 m 20.10833,-0.27235 v 1.41112 h 0.35278 l -0.35278,-1.41112 m -33.86666,0.35278 2.11666,12.34722 h 0.35278 l -1.76389,-12.34722 h -0.70555 m 4.93889,0 v 1.05834 h 0.35277 l -0.35277,-1.05834 m 15.875,0 v 1.41111 h 0.35277 l -0.35277,-1.41111 m -17.99167,0.35278 0.35278,0.35278 -0.35278,-0.35278 m 0.70555,0 0.35278,1.41111 h 0.35278 l -0.70556,-1.41111 m 16.22778,0 v 1.41111 h 0.35278 l -0.35278,-1.41111 m -18.69722,1.41111 h 0.35278 l 0.70555,-0.70555 -1.05833,0.70555 m 29.98611,-1.05833 v 1.41111 h 0.35278 l -0.35278,-1.41111 m 1.76389,0 v 1.05833 h 0.35278 l -0.35278,-1.05833 m 5.29167,0 v 1.05833 h 0.35277 l -0.35277,-1.05833 m 0.70555,0 v 1.05833 h 0.35278 l -0.35278,-1.05833 m -43.74444,2.11666 2.82222,-0.35277 -0.35278,-1.41111 -2.46944,1.76388 m 34.925,-1.76388 v 1.41111 h 0.35277 l -0.35277,-1.41111 m 4.23333,0.35277 v 1.41111 h 0.35278 l -0.35278,-1.41111 m -28.92778,0.35278 v 1.41111 h 0.35278 l -0.35278,-1.41111 m 8.11389,0 -2.82222,1.05833 2.82222,-1.05833 m 7.76111,0 v 1.41111 h 0.35278 l -0.35278,-1.41111 m -19.75555,0.35278 v 1.41111 h 0.35278 l -0.35278,-1.41111 m 2.82222,0.35278 v 1.05833 h 0.35278 l -0.35278,-1.05833 m 15.875,0 v 1.05833 h 0.35278 l -0.35278,-1.05833 m 11.28889,0 v 1.41111 h 0.35278 l -0.35278,-1.41111 m 1.76389,0 v 1.05833 h 0.35277 l -0.35277,-1.05833 m 5.29166,0 v 1.05833 h 0.35278 l -0.35278,-1.05833 m 0.70556,0 v 1.05833 h 0.35278 l -0.35278,-1.05833 m -40.56944,0.70555 0.35278,0.35278 -0.35278,-0.35278 m 15.16944,0 v 0.70556 l -3.175,0.35278 3.175,-1.05834 m 16.58055,0 v 1.05834 h 0.35278 l -0.35278,-1.05834 m 4.23334,0 v 1.41111 h 0.35278 l -0.35278,-1.41111 m -39.15833,1.05834 v 0.70555 l 0.35278,0.35278 2.46944,-0.70556 -0.35278,-1.05833 -2.46944,0.70556 m 10.23055,-0.70556 v 1.41111 h 0.35278 l -0.35278,-1.41111 m 15.875,0 v 1.41111 h 0.35278 l -0.35278,-1.41111 m -19.75561,0.70556 v 1.05833 h 0.35278 l -0.35278,-1.05833 m 2.82223,0 v 1.05833 h 0.35277 l -0.35277,-1.05833 m 15.875,0 v 1.05833 h 0.35277 l -0.35277,-1.05833 m 13.05277,0 v 1.05833 h 0.35278 l -0.35278,-1.05833 m 5.29167,0 v 1.05833 h 0.35278 l -0.35278,-1.05833 m -24.69444,0.35233 v 0.35278 l -3.175,0.70556 3.175,-1.05834 m 17.63888,0 v 1.05834 h 0.35278 l -0.35278,-1.05834 m -1.05833,0.35278 v 1.05833 h 0.35278 l -0.35278,-1.05833 m -24.69444,0.35278 v 1.41111 h 0.35277 l -0.35277,-1.41111 m 15.875,0 v 1.41111 h 0.35277 l -0.35277,-1.41111 m 13.05277,0 v 1.05833 h 0.35278 l -0.35278,-1.05833 m -35.98332,0.35278 0.35277,0.35277 -0.35277,-0.35277 m -3.175,1.41111 v 0.35278 l 3.175,-0.35278 v -0.35278 l -0.70556,-0.70556 -2.46944,1.05834 m 6.34999,-1.05834 v 1.05834 h 0.35278 l -0.35278,-1.05834 m 2.82222,0 v 1.05834 h 0.35278 l -0.35278,-1.05834 m 9.17223,0 v 0.35278 l -2.82223,0.70556 2.82223,-1.05834 m 6.70277,0 v 1.05834 h 0.35278 l -0.35278,-1.05834 m 11.28889,0.35278 v 1.05834 h 0.35278 l -0.35278,-1.05834 m 1.76389,0 v 1.05834 h 0.35278 l -0.35278,-1.05834 m 5.40914,0.2353 0.11783,0.23495 -0.11783,-0.23495 m -8.23136,0.11748 -0.35278,0.70556 0.35278,-0.70556 m -24.69445,0.35278 v 1.41111 h 0.35278 l -0.35278,-1.41111 m 15.875,0 v 1.05833 h 0.35278 l -0.35278,-1.05833 m 13.05278,0 v 0.70555 h 0.70556 l -0.70556,-0.70555 m -20.81389,0.35278 v 0.35277 l -2.82222,0.70556 2.82222,-1.05833 m 13.05278,0 v 0.35277 h 2.11667 l -2.11667,-0.35277 m 11.64167,0 -2.82223,0.35277 v 0.35278 l 2.82223,-0.70555 m -36.68889,0.35277 v 1.05834 h 0.35278 l -0.35278,-1.05834 m 2.82222,0 v 1.41111 h 0.35278 l -0.35278,-1.41111 m 18.69722,0 v 0.35278 h 2.11667 l -2.11667,-0.35278 m -25.39999,0.35278 -1.76389,2.11667 2.46944,-0.70556 -0.70555,-1.41111 m 22.57777,0 0.35278,1.41111 h 0.35278 l -0.70556,-1.41111 m 10.93611,0 0.35278,0.35278 -0.35278,-0.35278 m 2.11667,0 v 0.70556 h 0.70555 l -0.70555,-0.70556 m -4.93889,0.35278 v 0.35278 h 2.11667 l -2.11667,-0.35278 m -3.52778,0.35278 v 0.35277 h 2.11667 l -2.11667,-0.35277 m -19.05,0.35277 v 1.05834 h 0.35278 l -0.35278,-1.05834 m 15.875,0 v 0.35278 h 1.76389 l -1.76389,-0.35278 m -19.75555,0.35278 v 1.41111 h 0.35277 l -0.35277,-1.41111 m 2.93969,0.58808 0.11783,0.23495 -0.11783,-0.23495 m 23.16586,0.11748 v 0.35278 h 2.46945 l -2.46945,-0.35278 m -29.9861,0.35278 -2.11667,1.76388 2.82222,-0.35277 -0.70555,-1.41111 m 26.10555,0 v 0.35277 h 2.82222 l -2.82222,-0.35277 m 7.76111,0 v 1.41111 h 0.35277 l -0.35277,-1.41111 m -27.16389,0.35277 -0.70556,0.35278 v 0.35278 l 0.70556,-0.70556 m 1.41111,0 v 1.05834 h 0.35278 l -0.35278,-1.05834 m 17.16864,0.11748 0.23495,0.11783 -0.23495,-0.11783 m 10.34803,-0.11748 0.35277,0.35278 -0.35277,-0.35278 m -31.27975,0.58808 0.11783,0.23495 -0.11783,-0.23495 m 0.82338,0.23495 0.23495,0.11783 -0.23495,-0.11783 m 12.4647,0.23531 v 0.35277 l 2.46944,-0.35277 h -2.46944 m -10.34803,0.11747 0.23495,0.11783 -0.23495,-0.11783 m -27.39919,18.22697 c 0.65536,2.79188 -2.99702,5.0486 -4.92908,2.6095 -0.68421,-0.86395 -0.36258,-2.64125 -0.36258,-3.66783 v -9.17222 c 0,-1.05164 -0.37836,-3.12244 0.56564,-3.87068 3.69503,-2.92876 13.029,-0.0236 13.78091,4.57623 0.42344,2.59045 -1.46925,3.7592 -1.94162,5.99193 -0.23886,1.12889 4.7588,6.08118 0.62717,6.65022 -3.19176,0.43991 -4.74754,-3.36974 -7.74044,-3.11715 m 19.05,-1.41111 h 4.23333 l -0.36265,3.97157 -3.5179,0.61454 h -9.17222 c 1.4e-4,-1.24107 -0.21343,-2.74602 0.56564,-3.80682 1.81205,-2.46698 6.79683,-3.85833 6.97569,-7.47642 0.0328,-0.66146 -0.35595,-1.62631 -1.17898,-1.4979 -1.08021,0.16863 -1.22697,1.83374 -2.20931,2.28882 -3.27057,1.51413 -4.9651,-1.65347 -3.36691,-4.31905 2.62752,-4.38221 10.8326,-3.63044 12.28534,1.40582 1.08408,3.75884 -1.772,6.52885 -4.25203,8.81944 m 12.42765,-12.84005 c 4.10986,-1.85279 10.96046,0.18027 13.45283,3.66818 3.01131,4.21428 1.51236,10.789 -3.3027,12.92437 -1.99108,0.88265 -9.4167,2.09056 -10.87297,-0.025 -1.16311,-1.68981 -0.41592,-5.62645 -0.41592,-7.60801 0,-1.95438 -1.00119,-7.99429 1.13876,-8.95949 m 24.61401,12.84005 h 4.23334 l -0.36266,3.97157 -3.5179,0.61454 h -9.17222 c 0,-1.23649 -0.21237,-2.71992 0.5655,-3.77472 1.81857,-2.46521 6.79874,-3.91725 6.97583,-7.50852 0.0342,-0.69392 -0.36618,-1.59809 -1.17757,-1.59844 -1.1363,-7.1e-4 -1.22837,1.93181 -2.21086,2.38936 -3.27589,1.52436 -4.99639,-1.62136 -3.41559,-4.31905 2.28317,-3.89714 9.99031,-3.9303 11.93094,0.36124 1.80446,3.98992 -1.16417,7.37059 -3.84881,9.86402 m -55.17324,-8.09877 c -1.26555,0.94262 -0.69024,5.15232 1.47208,3.59657 1.84908,-1.32997 0.60914,-5.14632 -1.47208,-3.59657 m 35.92357,0.70168 c -2.16147,1.44603 -1.18745,8.44479 2.58974,6.17749 2.99473,-1.79741 0.51047,-8.25218 -2.58974,-6.17749 m -10.03123,2.59891 c 2.96086,-0.0765 2.89454,4.99322 -10e-4,5.12339 -3.36656,0.15134 -3.32917,-5.03731 10e-4,-5.12339"
       style="fill:#1b1212;stroke:none;stroke-width:1"
       id="path742" />
  </g>
</svg>
